<svg version="1.1" viewBox="0.0 0.0 600.0 371.0" fill="none" stroke="none" stroke-linecap="square" stroke-miterlimit="10" width="600" height="371" xmlns:xlink="http://www.w3.org/1999/xlink" xmlns="http://www.w3.org/2000/svg"><path fill="#ffffff" d="M0 0L600.0 0L600.0 371.0L0 371.0L0 0Z" fill-rule="nonzero"/><path stroke="#333333" stroke-width="1.0" stroke-linecap="butt" d="M66.5 311.5L581.5 311.5" fill-rule="nonzero"/><path fill="#eeeeee" d="M45.5 332.5L66.5 312.5L581.5 312.5L560.5 332.5Z" fill-rule="nonzero"/><path stroke="#cccccc" stroke-width="1.0" stroke-linecap="butt" d="M66.5 216.5L581.5 216.5" fill-rule="nonzero"/><path stroke="#cccccc" stroke-width="1.0" stroke-linecap="butt" d="M66.5 120.5L581.5 120.5" fill-rule="nonzero"/><path stroke="#cccccc" stroke-width="1.0" stroke-linecap="butt" d="M66.5 25.5L581.5 25.5" fill-rule="nonzero"/><clipPath id="id_0"><path d="M45.55 25.55L581.45 25.55L581.45 332.45L45.55 332.45L45.55 25.55Z" clip-rule="nonzero"/></clipPath><path fill="#0c1935" clip-path="url(#id_0)" d="M154.0 182.0L154.0 311.0L138.0 327.0L138.0 198.0Z" fill-rule="nonzero"/><path fill="#425175" clip-path="url(#id_0)" d="M138.0 198.0L73.0 198.0L89.0 182.0L154.0 182.0Z" fill-rule="nonzero"/><path stroke="#000000" stroke-width="2.0" stroke-linecap="butt" stroke-opacity="0.0" clip-path="url(#id_0)" d="M138.0 327.0L73.0 327.0L73.0 198.0L138.0 198.0Z" fill-rule="nonzero"/><path fill="#132652" clip-path="url(#id_0)" d="M138.0 327.0L73.0 327.0L73.0 198.0L138.0 198.0Z" fill-rule="nonzero"/><path fill="#0c1935" clip-path="url(#id_0)" d="M254.0 186.0L254.0 311.0L238.0 327.0L238.0 202.0Z" fill-rule="nonzero"/><path fill="#425175" clip-path="url(#id_0)" d="M238.0 202.0L173.0 202.0L189.0 186.0L254.0 186.0Z" fill-rule="nonzero"/><path stroke="#000000" stroke-width="2.0" stroke-linecap="butt" stroke-opacity="0.0" clip-path="url(#id_0)" d="M238.0 327.0L173.0 327.0L173.0 202.0L238.0 202.0Z" fill-rule="nonzero"/><path fill="#132652" clip-path="url(#id_0)" d="M238.0 327.0L173.0 327.0L173.0 202.0L238.0 202.0Z" fill-rule="nonzero"/><path fill="#0c1935" clip-path="url(#id_0)" d="M355.0 189.0L355.0 311.0L339.0 327.0L339.0 205.0Z" fill-rule="nonzero"/><path fill="#425175" clip-path="url(#id_0)" d="M339.0 205.0L274.0 205.0L290.0 189.0L355.0 189.0Z" fill-rule="nonzero"/><path stroke="#000000" stroke-width="2.0" stroke-linecap="butt" stroke-opacity="0.0" clip-path="url(#id_0)" d="M339.0 327.0L274.0 327.0L274.0 205.0L339.0 205.0Z" fill-rule="nonzero"/><path fill="#132652" clip-path="url(#id_0)" d="M339.0 327.0L274.0 327.0L274.0 205.0L339.0 205.0Z" fill-rule="nonzero"/><path fill="#0c1935" clip-path="url(#id_0)" d="M455.0 149.0L455.0 311.0L439.0 327.0L439.0 165.0Z" fill-rule="nonzero"/><path fill="#425175" clip-path="url(#id_0)" d="M439.0 165.0L374.0 165.0L390.0 149.0L455.0 149.0Z" fill-rule="nonzero"/><path stroke="#000000" stroke-width="2.0" stroke-linecap="butt" stroke-opacity="0.0" clip-path="url(#id_0)" d="M439.0 327.0L374.0 327.0L374.0 165.0L439.0 165.0Z" fill-rule="nonzero"/><path fill="#132652" clip-path="url(#id_0)" d="M439.0 327.0L374.0 327.0L374.0 165.0L439.0 165.0Z" fill-rule="nonzero"/><path fill="#0c1935" clip-path="url(#id_0)" d="M555.0 73.0L555.0 311.0L539.0 327.0L539.0 89.0Z" fill-rule="nonzero"/><path fill="#425175" clip-path="url(#id_0)" d="M539.0 89.0L474.0 89.0L490.0 73.0L555.0 73.0Z" fill-rule="nonzero"/><path stroke="#000000" stroke-width="2.0" stroke-linecap="butt" stroke-opacity="0.0" clip-path="url(#id_0)" d="M539.0 327.0L474.0 327.0L474.0 89.0L539.0 89.0Z" fill-rule="nonzero"/><path fill="#132652" clip-path="url(#id_0)" d="M539.0 327.0L474.0 327.0L474.0 89.0L539.0 89.0Z" fill-rule="nonzero"/><path fill="#000000" d="M33.05 311.21564Q33.05 309.6844 33.3625 308.7625Q33.675 307.825 34.284374 307.325Q34.909374 306.825 35.846874 306.825Q36.534374 306.825 37.05 307.10626Q37.58125 307.3875 37.925 307.91876Q38.26875 308.4344 38.45625 309.1844Q38.64375 309.9344 38.64375 311.21564Q38.64375 312.73126 38.33125 313.65314Q38.034374 314.575 37.409374 315.09064Q36.8 315.59064 35.846874 315.59064Q34.6125 315.59064 33.89375 314.7Q33.05 313.6375 33.05 311.21564ZM34.128124 311.21564Q34.128124 313.325 34.628124 314.02814Q35.128124 314.73126 35.846874 314.73126Q36.58125 314.73126 37.065624 314.02814Q37.565624 313.325 37.565624 311.21564Q37.565624 309.09064 37.065624 308.40314Q36.58125 307.7 35.83125 307.7Q35.1125 307.7 34.675 308.3094Q34.128124 309.09064 34.128124 311.21564Z" fill-rule="nonzero"/><path fill="#000000" d="M33.05 217.9L34.159374 217.80624Q34.284374 218.61874 34.721874 219.025Q35.175 219.43124 35.815624 219.43124Q36.565624 219.43124 37.096874 218.85312Q37.628124 218.275 37.628124 217.3375Q37.628124 216.43124 37.1125 215.91562Q36.6125 215.38437 35.784374 215.38437Q35.284374 215.38437 34.8625 215.61874Q34.45625 215.85312 34.221874 216.2125L33.2375 216.0875L34.065624 211.68124L38.346874 211.68124L38.346874 212.68124L34.909374 212.68124L34.45625 214.99374Q35.221874 214.44687 36.065624 214.44687Q37.190624 214.44687 37.95625 215.22812Q38.7375 216.00937 38.7375 217.24374Q38.7375 218.4 38.065624 219.25937Q37.2375 220.29062 35.815624 220.29062Q34.64375 220.29062 33.89375 219.63437Q33.159374 218.97812 33.05 217.9Z" fill-rule="nonzero"/><path fill="#000000" d="M30.01875 124.85L28.971874 124.85L28.971874 118.13125Q28.58125 118.49062 27.95625 118.86562Q27.346874 119.225 26.8625 119.39687L26.8625 118.38125Q27.7375 117.95937 28.39375 117.38125Q29.065624 116.7875 29.346874 116.225L30.01875 116.225L30.01875 124.85ZM33.05 120.61562Q33.05 119.08437 33.3625 118.1625Q33.675 117.225 34.284374 116.725Q34.909374 116.225 35.846874 116.225Q36.534374 116.225 37.05 116.50625Q37.58125 116.7875 37.925 117.31875Q38.26875 117.83437 38.45625 118.58437Q38.64375 119.33437 38.64375 120.61562Q38.64375 122.13125 38.33125 123.05312Q38.034374 123.975 37.409374 124.49062Q36.8 124.99062 35.846874 124.99062Q34.6125 124.99062 33.89375 124.1Q33.05 123.0375 33.05 120.61562ZM34.128124 120.61562Q34.128124 122.725 34.628124 123.42812Q35.128124 124.13125 35.846874 124.13125Q36.58125 124.13125 37.065624 123.42812Q37.565624 122.725 37.565624 120.61562Q37.565624 118.49062 37.065624 117.80312Q36.58125 117.1 35.83125 117.1Q35.1125 117.1 34.675 117.70937Q34.128124 118.49062 34.128124 120.61562Z" fill-rule="nonzero"/><path fill="#000000" d="M30.01875 29.55L28.971874 29.55L28.971874 22.83125Q28.58125 23.190624 27.95625 23.565624Q27.346874 23.925 26.8625 24.096874L26.8625 23.08125Q27.7375 22.659374 28.39375 22.08125Q29.065624 21.4875 29.346874 20.925L30.01875 20.925L30.01875 29.55ZM33.05 27.3L34.159374 27.20625Q34.284374 28.01875 34.721874 28.425Q35.175 28.83125 35.815624 28.83125Q36.565624 28.83125 37.096874 28.253124Q37.628124 27.675 37.628124 26.7375Q37.628124 25.83125 37.1125 25.315624Q36.6125 24.784374 35.784374 24.784374Q35.284374 24.784374 34.8625 25.01875Q34.45625 25.253124 34.221874 25.6125L33.2375 25.4875L34.065624 21.08125L38.346874 21.08125L38.346874 22.08125L34.909374 22.08125L34.45625 24.39375Q35.221874 23.846874 36.065624 23.846874Q37.190624 23.846874 37.95625 24.628124Q38.7375 25.409374 38.7375 26.64375Q38.7375 27.8 38.065624 28.659374Q37.2375 29.690624 35.815624 29.690624Q34.64375 29.690624 33.89375 29.034374Q33.159374 28.378124 33.05 27.3Z" fill-rule="nonzero"/><path fill="#000000" d="M97.21043 348.4344L97.21043 349.45L91.52293 349.45Q91.52293 349.075 91.64793 348.71564Q91.86668 348.1375 92.33543 347.575Q92.8198 347.0125 93.72605 346.27814Q95.1323 345.1219 95.61668 344.45Q96.11668 343.77814 96.11668 343.1844Q96.11668 342.5594 95.66355 342.1375Q95.21043 341.7 94.49168 341.7Q93.72605 341.7 93.27293 342.15314Q92.8198 342.60626 92.80418 343.41876L91.72605 343.3094Q91.83543 342.09064 92.55418 341.46564Q93.28855 340.825 94.52293 340.825Q95.7573 340.825 96.47605 341.5125Q97.1948 342.2 97.1948 343.21564Q97.1948 343.73126 96.97605 344.23126Q96.77293 344.71564 96.27293 345.27814Q95.78855 345.825 94.66355 346.77814Q93.71043 347.575 93.42918 347.8719Q93.16355 348.15314 92.99168 348.4344L97.21043 348.4344ZM98.66355 345.21564Q98.66355 343.6844 98.97605 342.7625Q99.28855 341.825 99.89793 341.325Q100.52293 340.825 101.46043 340.825Q102.14793 340.825 102.66355 341.10626Q103.1948 341.3875 103.53855 341.91876Q103.8823 342.4344 104.0698 343.1844Q104.2573 343.9344 104.2573 345.21564Q104.2573 346.73126 103.9448 347.65314Q103.64793 348.575 103.02293 349.09064Q102.41355 349.59064 101.46043 349.59064Q100.22605 349.59064 99.5073 348.7Q98.66355 347.6375 98.66355 345.21564ZM99.74168 345.21564Q99.74168 347.325 100.24168 348.02814Q100.74168 348.73126 101.46043 348.73126Q102.1948 348.73126 102.67918 348.02814Q103.17918 347.325 103.17918 345.21564Q103.17918 343.09064 102.67918 342.40314Q102.1948 341.7 101.4448 341.7Q100.72605 341.7 100.28855 342.3094Q99.74168 343.09064 99.74168 345.21564ZM109.6323 349.45L108.58543 349.45L108.58543 342.73126Q108.1948 343.09064 107.5698 343.46564Q106.96043 343.825 106.47605 343.9969L106.47605 342.98126Q107.35105 342.5594 108.0073 341.98126Q108.67918 341.3875 108.96043 340.825L109.6323 340.825L109.6323 349.45ZM114.28855 344.79376Q113.6323 344.54376 113.30418 344.10626Q112.99168 343.65314 112.99168 343.04376Q112.99168 342.10626 113.66355 341.46564Q114.35105 340.825 115.46043 340.825Q116.58543 340.825 117.27293 341.48126Q117.96043 342.1375 117.96043 343.075Q117.96043 343.66876 117.64793 344.10626Q117.33543 344.54376 116.6948 344.79376Q117.49168 345.04376 117.89793 345.6219Q118.30418 346.2 118.30418 346.9969Q118.30418 348.09064 117.52293 348.84064Q116.7573 349.59064 115.47605 349.59064Q114.21043 349.59064 113.42918 348.84064Q112.64793 348.09064 112.64793 346.96564Q112.64793 346.1219 113.0698 345.5594Q113.5073 344.9969 114.28855 344.79376ZM114.0698 342.9969Q114.0698 343.60626 114.46043 343.9969Q114.86668 344.3875 115.49168 344.3875Q116.10105 344.3875 116.49168 344.0125Q116.8823 343.6219 116.8823 343.0594Q116.8823 342.48126 116.47605 342.09064Q116.0698 341.6844 115.47605 341.6844Q114.86668 341.6844 114.46043 342.075Q114.0698 342.46564 114.0698 342.9969ZM113.74168 346.96564Q113.74168 347.41876 113.9448 347.84064Q114.16355 348.2625 114.58543 348.4969Q115.0073 348.73126 115.49168 348.73126Q116.24168 348.73126 116.72605 348.2469Q117.22605 347.7625 117.22605 347.0125Q117.22605 346.2469 116.72605 345.7469Q116.22605 345.2469 115.46043 345.2469Q114.71043 345.2469 114.22605 345.7469Q113.74168 346.23126 113.74168 346.96564Z" fill-rule="nonzero"/><path fill="#000000" d="M197.37865 348.4344L197.37865 349.45L191.69115 349.45Q191.69115 349.075 191.81615 348.71564Q192.0349 348.1375 192.50365 347.575Q192.98802 347.0125 193.89427 346.27814Q195.30052 345.1219 195.7849 344.45Q196.2849 343.77814 196.2849 343.1844Q196.2849 342.5594 195.83177 342.1375Q195.37865 341.7 194.6599 341.7Q193.89427 341.7 193.44115 342.15314Q192.98802 342.60626 192.9724 343.41876L191.89427 343.3094Q192.00365 342.09064 192.7224 341.46564Q193.45677 340.825 194.69115 340.825Q195.92552 340.825 196.64427 341.5125Q197.36302 342.2 197.36302 343.21564Q197.36302 343.73126 197.14427 344.23126Q196.94115 344.71564 196.44115 345.27814Q195.95677 345.825 194.83177 346.77814Q193.87865 347.575 193.5974 347.8719Q193.33177 348.15314 193.1599 348.4344L197.37865 348.4344ZM198.83177 345.21564Q198.83177 343.6844 199.14427 342.7625Q199.45677 341.825 200.06615 341.325Q200.69115 340.825 201.62865 340.825Q202.31615 340.825 202.83177 341.10626Q203.36302 341.3875 203.70677 341.91876Q204.05052 342.4344 204.23802 343.1844Q204.42552 343.9344 204.42552 345.21564Q204.42552 346.73126 204.11302 347.65314Q203.81615 348.575 203.19115 349.09064Q202.58177 349.59064 201.62865 349.59064Q200.39427 349.59064 199.67552 348.7Q198.83177 347.6375 198.83177 345.21564ZM199.9099 345.21564Q199.9099 347.325 200.4099 348.02814Q200.9099 348.73126 201.62865 348.73126Q202.36302 348.73126 202.8474 348.02814Q203.3474 347.325 203.3474 345.21564Q203.3474 343.09064 202.8474 342.40314Q202.36302 341.7 201.61302 341.7Q200.89427 341.7 200.45677 342.3094Q199.9099 343.09064 199.9099 345.21564ZM209.80052 349.45L208.75365 349.45L208.75365 342.73126Q208.36302 343.09064 207.73802 343.46564Q207.12865 343.825 206.64427 343.9969L206.64427 342.98126Q207.51927 342.5594 208.17552 341.98126Q208.8474 341.3875 209.12865 340.825L209.80052 340.825L209.80052 349.45ZM212.98802 347.46564L214.00365 347.3719Q214.12865 348.09064 214.48802 348.41876Q214.86302 348.73126 215.42552 348.73126Q215.9099 348.73126 216.26927 348.5125Q216.64427 348.27814 216.87865 347.91876Q217.11302 347.54376 217.26927 346.91876Q217.42552 346.27814 217.42552 345.6219Q217.42552 345.54376 217.42552 345.40314Q217.11302 345.90314 216.56615 346.23126Q216.01927 346.54376 215.37865 346.54376Q214.30052 346.54376 213.56615 345.77814Q212.83177 344.9969 212.83177 343.73126Q212.83177 342.41876 213.5974 341.6219Q214.37865 340.825 215.5349 340.825Q216.36302 340.825 217.05052 341.27814Q217.75365 341.73126 218.11302 342.575Q218.4724 343.40314 218.4724 344.98126Q218.4724 346.6219 218.11302 347.60626Q217.76927 348.575 217.05052 349.09064Q216.3474 349.59064 215.4099 349.59064Q214.39427 349.59064 213.75365 349.04376Q213.11302 348.48126 212.98802 347.46564ZM217.30052 343.66876Q217.30052 342.7625 216.81615 342.23126Q216.3474 341.7 215.6599 341.7Q214.95677 341.7 214.42552 342.27814Q213.9099 342.84064 213.9099 343.7625Q213.9099 344.575 214.4099 345.09064Q214.9099 345.60626 215.62865 345.60626Q216.36302 345.60626 216.83177 345.09064Q217.30052 344.575 217.30052 343.66876Z" fill-rule="nonzero"/><path fill="#000000" d="M297.54688 348.4344L297.54688 349.45L291.85938 349.45Q291.85938 349.075 291.98438 348.71564Q292.20312 348.1375 292.67188 347.575Q293.15625 347.0125 294.0625 346.27814Q295.46875 345.1219 295.95312 344.45Q296.45312 343.77814 296.45312 343.1844Q296.45312 342.5594 296.0 342.1375Q295.54688 341.7 294.82812 341.7Q294.0625 341.7 293.60938 342.15314Q293.15625 342.60626 293.14062 343.41876L292.0625 343.3094Q292.17188 342.09064 292.89062 341.46564Q293.625 340.825 294.85938 340.825Q296.09375 340.825 296.8125 341.5125Q297.53125 342.2 297.53125 343.21564Q297.53125 343.73126 297.3125 344.23126Q297.10938 344.71564 296.60938 345.27814Q296.125 345.825 295.0 346.77814Q294.04688 347.575 293.76562 347.8719Q293.5 348.15314 293.32812 348.4344L297.54688 348.4344ZM299.0 345.21564Q299.0 343.6844 299.3125 342.7625Q299.625 341.825 300.23438 341.325Q300.85938 340.825 301.79688 340.825Q302.48438 340.825 303.0 341.10626Q303.53125 341.3875 303.875 341.91876Q304.21875 342.4344 304.40625 343.1844Q304.59375 343.9344 304.59375 345.21564Q304.59375 346.73126 304.28125 347.65314Q303.98438 348.575 303.35938 349.09064Q302.75 349.59064 301.79688 349.59064Q300.5625 349.59064 299.84375 348.7Q299.0 347.6375 299.0 345.21564ZM300.07812 345.21564Q300.07812 347.325 300.57812 348.02814Q301.07812 348.73126 301.79688 348.73126Q302.53125 348.73126 303.01562 348.02814Q303.51562 347.325 303.51562 345.21564Q303.51562 343.09064 303.01562 342.40314Q302.53125 341.7 301.78125 341.7Q301.0625 341.7 300.625 342.3094Q300.07812 343.09064 300.07812 345.21564ZM311.54688 348.4344L311.54688 349.45L305.85938 349.45Q305.85938 349.075 305.98438 348.71564Q306.20312 348.1375 306.67188 347.575Q307.15625 347.0125 308.0625 346.27814Q309.46875 345.1219 309.95312 344.45Q310.45312 343.77814 310.45312 343.1844Q310.45312 342.5594 310.0 342.1375Q309.54688 341.7 308.82812 341.7Q308.0625 341.7 307.60938 342.15314Q307.15625 342.60626 307.14062 343.41876L306.0625 343.3094Q306.17188 342.09064 306.89062 341.46564Q307.625 340.825 308.85938 340.825Q310.09375 340.825 310.8125 341.5125Q311.53125 342.2 311.53125 343.21564Q311.53125 343.73126 311.3125 344.23126Q311.10938 344.71564 310.60938 345.27814Q310.125 345.825 309.0 346.77814Q308.04688 347.575 307.76562 347.8719Q307.5 348.15314 307.32812 348.4344L311.54688 348.4344ZM313.0 345.21564Q313.0 343.6844 313.3125 342.7625Q313.625 341.825 314.23438 341.325Q314.85938 340.825 315.79688 340.825Q316.48438 340.825 317.0 341.10626Q317.53125 341.3875 317.875 341.91876Q318.21875 342.4344 318.40625 343.1844Q318.59375 343.9344 318.59375 345.21564Q318.59375 346.73126 318.28125 347.65314Q317.98438 348.575 317.35938 349.09064Q316.75 349.59064 315.79688 349.59064Q314.5625 349.59064 313.84375 348.7Q313.0 347.6375 313.0 345.21564ZM314.07812 345.21564Q314.07812 347.325 314.57812 348.02814Q315.07812 348.73126 315.79688 348.73126Q316.53125 348.73126 317.01562 348.02814Q317.51562 347.325 317.51562 345.21564Q317.51562 343.09064 317.01562 342.40314Q316.53125 341.7 315.78125 341.7Q315.0625 341.7 314.625 342.3094Q314.07812 343.09064 314.07812 345.21564Z" fill-rule="nonzero"/><path fill="#000000" d="M397.7151 348.4344L397.7151 349.45L392.0276 349.45Q392.0276 349.075 392.1526 348.71564Q392.37134 348.1375 392.8401 347.575Q393.32446 347.0125 394.2307 346.27814Q395.63696 345.1219 396.12134 344.45Q396.62134 343.77814 396.62134 343.1844Q396.62134 342.5594 396.1682 342.1375Q395.7151 341.7 394.99634 341.7Q394.2307 341.7 393.7776 342.15314Q393.32446 342.60626 393.30884 343.41876L392.2307 343.3094Q392.3401 342.09064 393.05884 341.46564Q393.7932 340.825 395.0276 340.825Q396.26196 340.825 396.9807 341.5125Q397.69946 342.2 397.69946 343.21564Q397.69946 343.73126 397.4807 344.23126Q397.2776 344.71564 396.7776 345.27814Q396.2932 345.825 395.1682 346.77814Q394.2151 347.575 393.93384 347.8719Q393.6682 348.15314 393.49634 348.4344L397.7151 348.4344ZM399.1682 345.21564Q399.1682 343.6844 399.4807 342.7625Q399.7932 341.825 400.4026 341.325Q401.0276 340.825 401.9651 340.825Q402.6526 340.825 403.1682 341.10626Q403.69946 341.3875 404.0432 341.91876Q404.38696 342.4344 404.57446 343.1844Q404.76196 343.9344 404.76196 345.21564Q404.76196 346.73126 404.44946 347.65314Q404.1526 348.575 403.5276 349.09064Q402.9182 349.59064 401.9651 349.59064Q400.7307 349.59064 400.01196 348.7Q399.1682 347.6375 399.1682 345.21564ZM400.24634 345.21564Q400.24634 347.325 400.74634 348.02814Q401.24634 348.73126 401.9651 348.73126Q402.69946 348.73126 403.18384 348.02814Q403.68384 347.325 403.68384 345.21564Q403.68384 343.09064 403.18384 342.40314Q402.69946 341.7 401.94946 341.7Q401.2307 341.7 400.7932 342.3094Q400.24634 343.09064 400.24634 345.21564ZM411.7151 348.4344L411.7151 349.45L406.0276 349.45Q406.0276 349.075 406.1526 348.71564Q406.37134 348.1375 406.8401 347.575Q407.32446 347.0125 408.2307 346.27814Q409.63696 345.1219 410.12134 344.45Q410.62134 343.77814 410.62134 343.1844Q410.62134 342.5594 410.1682 342.1375Q409.7151 341.7 408.99634 341.7Q408.2307 341.7 407.7776 342.15314Q407.32446 342.60626 407.30884 343.41876L406.2307 343.3094Q406.3401 342.09064 407.05884 341.46564Q407.7932 340.825 409.0276 340.825Q410.26196 340.825 410.9807 341.5125Q411.69946 342.2 411.69946 343.21564Q411.69946 343.73126 411.4807 344.23126Q411.2776 344.71564 410.7776 345.27814Q410.2932 345.825 409.1682 346.77814Q408.2151 347.575 407.93384 347.8719Q407.6682 348.15314 407.49634 348.4344L411.7151 348.4344ZM417.13696 349.45L416.0901 349.45L416.0901 342.73126Q415.69946 343.09064 415.07446 343.46564Q414.4651 343.825 413.9807 343.9969L413.9807 342.98126Q414.8557 342.5594 415.51196 341.98126Q416.18384 341.3875 416.4651 340.825L417.13696 340.825L417.13696 349.45Z" fill-rule="nonzero"/><path fill="#000000" d="M497.88333 348.4344L497.88333 349.45L492.19583 349.45Q492.19583 349.075 492.32083 348.71564Q492.53958 348.1375 493.00833 347.575Q493.4927 347.0125 494.39896 346.27814Q495.8052 345.1219 496.28958 344.45Q496.78958 343.77814 496.78958 343.1844Q496.78958 342.5594 496.33646 342.1375Q495.88333 341.7 495.16458 341.7Q494.39896 341.7 493.94583 342.15314Q493.4927 342.60626 493.47708 343.41876L492.39896 343.3094Q492.50833 342.09064 493.22708 341.46564Q493.96146 340.825 495.19583 340.825Q496.4302 340.825 497.14896 341.5125Q497.8677 342.2 497.8677 343.21564Q497.8677 343.73126 497.64896 344.23126Q497.44583 344.71564 496.94583 345.27814Q496.46146 345.825 495.33646 346.77814Q494.38333 347.575 494.10208 347.8719Q493.83646 348.15314 493.66458 348.4344L497.88333 348.4344ZM499.33646 345.21564Q499.33646 343.6844 499.64896 342.7625Q499.96146 341.825 500.57083 341.325Q501.19583 340.825 502.13333 340.825Q502.82083 340.825 503.33646 341.10626Q503.8677 341.3875 504.21146 341.91876Q504.5552 342.4344 504.7427 343.1844Q504.9302 343.9344 504.9302 345.21564Q504.9302 346.73126 504.6177 347.65314Q504.32083 348.575 503.69583 349.09064Q503.08646 349.59064 502.13333 349.59064Q500.89896 349.59064 500.1802 348.7Q499.33646 347.6375 499.33646 345.21564ZM500.41458 345.21564Q500.41458 347.325 500.91458 348.02814Q501.41458 348.73126 502.13333 348.73126Q502.8677 348.73126 503.35208 348.02814Q503.85208 347.325 503.85208 345.21564Q503.85208 343.09064 503.35208 342.40314Q502.8677 341.7 502.1177 341.7Q501.39896 341.7 500.96146 342.3094Q500.41458 343.09064 500.41458 345.21564ZM511.88333 348.4344L511.88333 349.45L506.19583 349.45Q506.19583 349.075 506.32083 348.71564Q506.53958 348.1375 507.00833 347.575Q507.4927 347.0125 508.39896 346.27814Q509.8052 345.1219 510.28958 344.45Q510.78958 343.77814 510.78958 343.1844Q510.78958 342.5594 510.33646 342.1375Q509.88333 341.7 509.16458 341.7Q508.39896 341.7 507.94583 342.15314Q507.4927 342.60626 507.47708 343.41876L506.39896 343.3094Q506.50833 342.09064 507.22708 341.46564Q507.96146 340.825 509.19583 340.825Q510.4302 340.825 511.14896 341.5125Q511.8677 342.2 511.8677 343.21564Q511.8677 343.73126 511.64896 344.23126Q511.44583 344.71564 510.94583 345.27814Q510.46146 345.825 509.33646 346.77814Q508.38333 347.575 508.10208 347.8719Q507.83646 348.15314 507.66458 348.4344L511.88333 348.4344ZM518.8833 348.4344L518.8833 349.45L513.1958 349.45Q513.1958 349.075 513.3208 348.71564Q513.53955 348.1375 514.0083 347.575Q514.4927 347.0125 515.3989 346.27814Q516.8052 345.1219 517.28955 344.45Q517.78955 343.77814 517.78955 343.1844Q517.78955 342.5594 517.3364 342.1375Q516.8833 341.7 516.16455 341.7Q515.3989 341.7 514.9458 342.15314Q514.4927 342.60626 514.47705 343.41876L513.3989 343.3094Q513.5083 342.09064 514.22705 341.46564Q514.9614 340.825 516.1958 340.825Q517.4302 340.825 518.1489 341.5125Q518.8677 342.2 518.8677 343.21564Q518.8677 343.73126 518.6489 344.23126Q518.4458 344.71564 517.9458 345.27814Q517.4614 345.825 516.3364 346.77814Q515.3833 347.575 515.10205 347.8719Q514.8364 348.15314 514.66455 348.4344L518.8833 348.4344Z" fill-rule="nonzero"/></svg>