<svg version="1.1" viewBox="0.0 0.0 1198.0 453.0" fill="none" stroke="none" stroke-linecap="square" stroke-miterlimit="10" width="1198" height="453" xmlns:xlink="http://www.w3.org/1999/xlink" xmlns="http://www.w3.org/2000/svg"><path fill="#ffffff" d="M0 0L1198.0 0L1198.0 453.0L0 453.0L0 0Z" fill-rule="nonzero"/><path stroke="#cccccc" stroke-width="1.0" stroke-linecap="butt" d="M81.5 29.5L81.5 378.5" fill-rule="nonzero"/><path stroke="#cccccc" stroke-width="1.0" stroke-linecap="butt" d="M300.5 29.5L300.5 378.5" fill-rule="nonzero"/><path stroke="#cccccc" stroke-width="1.0" stroke-linecap="butt" d="M519.5 29.5L519.5 378.5" fill-rule="nonzero"/><path stroke="#cccccc" stroke-width="1.0" stroke-linecap="butt" d="M737.5 29.5L737.5 378.5" fill-rule="nonzero"/><path stroke="#cccccc" stroke-width="1.0" stroke-linecap="butt" d="M956.5 29.5L956.5 378.5" fill-rule="nonzero"/><path stroke="#cccccc" stroke-width="1.0" stroke-linecap="butt" d="M1175.5 29.5L1175.5 378.5" fill-rule="nonzero"/><path stroke="#333333" stroke-width="1.0" stroke-linecap="butt" d="M81.5 378.5L1175.5 378.5" fill-rule="nonzero"/><path stroke="#cccccc" stroke-width="1.0" stroke-linecap="butt" d="M81.5 291.5L1175.5 291.5" fill-rule="nonzero"/><path stroke="#cccccc" stroke-width="1.0" stroke-linecap="butt" d="M81.5 204.5L1175.5 204.5" fill-rule="nonzero"/><path stroke="#cccccc" stroke-width="1.0" stroke-linecap="butt" d="M81.5 116.5L1175.5 116.5" fill-rule="nonzero"/><path stroke="#cccccc" stroke-width="1.0" stroke-linecap="butt" d="M81.5 29.5L1175.5 29.5" fill-rule="nonzero"/><path stroke="#e6e6e6" stroke-width="1.0" stroke-linecap="butt" d="M81.5 349.5L1175.5 349.5" fill-rule="nonzero"/><path stroke="#e6e6e6" stroke-width="1.0" stroke-linecap="butt" d="M81.5 320.5L1175.5 320.5" fill-rule="nonzero"/><path stroke="#e6e6e6" stroke-width="1.0" stroke-linecap="butt" d="M81.5 262.5L1175.5 262.5" fill-rule="nonzero"/><path stroke="#e6e6e6" stroke-width="1.0" stroke-linecap="butt" d="M81.5 233.5L1175.5 233.5" fill-rule="nonzero"/><path stroke="#e6e6e6" stroke-width="1.0" stroke-linecap="butt" d="M81.5 174.5L1175.5 174.5" fill-rule="nonzero"/><path stroke="#e6e6e6" stroke-width="1.0" stroke-linecap="butt" d="M81.5 145.5L1175.5 145.5" fill-rule="nonzero"/><path stroke="#e6e6e6" stroke-width="1.0" stroke-linecap="butt" d="M81.5 87.5L1175.5 87.5" fill-rule="nonzero"/><path stroke="#e6e6e6" stroke-width="1.0" stroke-linecap="butt" d="M81.5 58.5L1175.5 58.5" fill-rule="nonzero"/><path stroke="#eeeeee" stroke-width="1.0" stroke-linecap="butt" d="M81.65 231.5875L81.65 247.5875" fill-rule="nonzero"/><path stroke="#eeeeee" stroke-width="1.0" stroke-linecap="butt" d="M300.39 212.409L300.39 228.409" fill-rule="nonzero"/><path stroke="#eeeeee" stroke-width="1.0" stroke-linecap="butt" d="M519.13 204.56325L519.13 220.56325" fill-rule="nonzero"/><path stroke="#eeeeee" stroke-width="1.0" stroke-linecap="butt" d="M737.87 215.02425L737.87 231.02425" fill-rule="nonzero"/><path stroke="#eeeeee" stroke-width="1.0" stroke-linecap="butt" d="M956.61 144.4125L956.61 160.4125" fill-rule="nonzero"/><clipPath id="id_0"><path d="M81.65 29.65L1175.35 29.65L1175.35 378.35L81.65 378.35L81.65 29.65Z" clip-rule="nonzero"/></clipPath><path fill="#4285f4" fill-opacity="0.3019608" clip-path="url(#id_0)" d="M81.65 247.5875L300.39 228.409L519.13 220.56325L737.87 231.02425L956.61 160.4125L1175.35 55.8025L1175.35 378.35L956.61 378.35L737.87 378.35L519.13 378.35L300.39 378.35L81.65 378.35Z" fill-rule="nonzero"/><path stroke="#4285f4" stroke-width="2.0" stroke-linecap="butt" clip-path="url(#id_0)" d="M81.65 247.5875L300.39 228.409L519.13 220.56325L737.87 231.02425L956.61 160.4125L1175.35 55.8025" fill-rule="nonzero"/><path fill="#4285f4" clip-path="url(#id_0)" d="M83.65 247.5875C83.65 248.69206 82.75457 249.5875 81.65 249.5875C80.54543 249.5875 79.65 248.69206 79.65 247.5875C79.65 246.48293 80.54543 245.5875 81.65 245.5875C82.75457 245.5875 83.65 246.48293 83.65 247.5875Z" fill-rule="nonzero"/><path fill="#4285f4" clip-path="url(#id_0)" d="M302.39 228.409C302.39 229.51357 301.49457 230.409 300.39 230.409C299.28543 230.409 298.39 229.51357 298.39 228.409C298.39 227.30443 299.28543 226.409 300.39 226.409C301.49457 226.409 302.39 227.30443 302.39 228.409Z" fill-rule="nonzero"/><path fill="#4285f4" clip-path="url(#id_0)" d="M521.13 220.56325C521.13 221.66782 520.23456 222.56325 519.13 222.56325C518.02545 222.56325 517.13 221.66782 517.13 220.56325C517.13 219.45868 518.02545 218.56325 519.13 218.56325C520.23456 218.56325 521.13 219.45868 521.13 220.56325Z" fill-rule="nonzero"/><path fill="#4285f4" clip-path="url(#id_0)" d="M739.87 231.02425C739.87 232.12881 738.97455 233.02425 737.87 233.02425C736.76544 233.02425 735.87 232.12881 735.87 231.02425C735.87 229.91968 736.76544 229.02425 737.87 229.02425C738.97455 229.02425 739.87 229.91968 739.87 231.02425Z" fill-rule="nonzero"/><path fill="#4285f4" clip-path="url(#id_0)" d="M958.61 160.4125C958.61 161.51707 957.7146 162.4125 956.61 162.4125C955.50543 162.4125 954.61 161.51707 954.61 160.4125C954.61 159.30794 955.50543 158.4125 956.61 158.4125C957.7146 158.4125 958.61 159.30794 958.61 160.4125Z" fill-rule="nonzero"/><path fill="#4285f4" clip-path="url(#id_0)" d="M1177.35 55.8025C1177.35 56.90707 1176.4546 57.8025 1175.35 57.8025C1174.2455 57.8025 1173.35 56.90707 1173.35 55.8025C1173.35 54.69793 1174.2455 53.8025 1175.35 53.8025C1176.4546 53.8025 1177.35 54.69793 1177.35 55.8025Z" fill-rule="nonzero"/><path stroke="#ffffff" stroke-width="3.0" stroke-linejoin="round" stroke-linecap="round" d="M75.41563 229.5875L74.3375 229.5875L74.3375 222.36874L72.15 223.16562L72.15 222.18124L75.25938 221.00937L75.41563 221.00937L75.41563 229.5875ZM79.35313 225.30624L79.79063 221.05624L84.16563 221.05624L84.16563 222.05624L80.7125 222.05624L80.44688 224.38437Q81.0875 224.00937 81.88438 224.00937Q83.04063 224.00937 83.72813 224.79062Q84.41563 225.55624 84.41563 226.86874Q84.41563 228.18124 83.69688 228.94687Q82.99375 229.7125 81.7125 229.7125Q80.5875 229.7125 79.86875 229.0875Q79.15 228.44687 79.05625 227.3375L80.07188 227.3375Q80.18125 228.07187 80.60313 228.44687Q81.025 228.82187 81.7125 228.82187Q82.4625 228.82187 82.9 228.30624Q83.3375 227.79062 83.3375 226.88437Q83.3375 226.025 82.86875 225.50937Q82.4 224.99374 81.61875 224.99374Q80.91563 224.99374 80.50938 225.29062L80.22813 225.525L79.35313 225.30624ZM91.2125 225.94687Q91.2125 227.85312 90.55625 228.79062Q89.91563 229.7125 88.525 229.7125Q87.16563 229.7125 86.50938 228.80624Q85.85313 227.9 85.82188 226.0875L85.82188 224.65Q85.82188 222.75937 86.4625 221.85312Q87.11875 220.93124 88.50938 220.93124Q89.88438 220.93124 90.54063 221.82187Q91.19688 222.69687 91.2125 224.54062L91.2125 225.94687ZM90.11875 224.4625Q90.11875 223.0875 89.72813 222.4625Q89.35313 221.82187 88.50938 221.82187Q87.68125 221.82187 87.29063 222.4625Q86.91563 223.0875 86.91563 224.38437L86.91563 226.11874Q86.91563 227.49374 87.30625 228.16562Q87.7125 228.82187 88.525 228.82187Q89.32188 228.82187 89.7125 228.19687Q90.10313 227.57187 90.11875 226.24374L90.11875 224.4625Z" fill-rule="nonzero"/><path fill="#000000" d="M75.41563 229.5875L74.3375 229.5875L74.3375 222.36874L72.15 223.16562L72.15 222.18124L75.25938 221.00937L75.41563 221.00937L75.41563 229.5875ZM79.35313 225.30624L79.79063 221.05624L84.16563 221.05624L84.16563 222.05624L80.7125 222.05624L80.44688 224.38437Q81.0875 224.00937 81.88438 224.00937Q83.04063 224.00937 83.72813 224.79062Q84.41563 225.55624 84.41563 226.86874Q84.41563 228.18124 83.69688 228.94687Q82.99375 229.7125 81.7125 229.7125Q80.5875 229.7125 79.86875 229.0875Q79.15 228.44687 79.05625 227.3375L80.07188 227.3375Q80.18125 228.07187 80.60313 228.44687Q81.025 228.82187 81.7125 228.82187Q82.4625 228.82187 82.9 228.30624Q83.3375 227.79062 83.3375 226.88437Q83.3375 226.025 82.86875 225.50937Q82.4 224.99374 81.61875 224.99374Q80.91563 224.99374 80.50938 225.29062L80.22813 225.525L79.35313 225.30624ZM91.2125 225.94687Q91.2125 227.85312 90.55625 228.79062Q89.91563 229.7125 88.525 229.7125Q87.16563 229.7125 86.50938 228.80624Q85.85313 227.9 85.82188 226.0875L85.82188 224.65Q85.82188 222.75937 86.4625 221.85312Q87.11875 220.93124 88.50938 220.93124Q89.88438 220.93124 90.54063 221.82187Q91.19688 222.69687 91.2125 224.54062L91.2125 225.94687ZM90.11875 224.4625Q90.11875 223.0875 89.72813 222.4625Q89.35313 221.82187 88.50938 221.82187Q87.68125 221.82187 87.29063 222.4625Q86.91563 223.0875 86.91563 224.38437L86.91563 226.11874Q86.91563 227.49374 87.30625 228.16562Q87.7125 228.82187 88.525 228.82187Q89.32188 228.82187 89.7125 228.19687Q90.10313 227.57187 90.11875 226.24374L90.11875 224.4625Z" fill-rule="nonzero"/><path stroke="#ffffff" stroke-width="3.0" stroke-linejoin="round" stroke-linecap="round" d="M294.15564 210.409L293.0775 210.409L293.0775 203.19025L290.89 203.98712L290.89 203.00275L293.9994 201.83087L294.15564 201.83087L294.15564 210.409ZM303.10876 202.48712L299.5775 210.409L298.4369 210.409L301.9525 202.76837L297.34314 202.76837L297.34314 201.87775L303.10876 201.87775L303.10876 202.48712ZM310.1869 210.409L304.59314 210.409L304.59314 209.62775L307.54626 206.3465Q308.2025 205.5965 308.4525 205.14337Q308.7025 204.67462 308.7025 204.17462Q308.7025 203.50275 308.29626 203.08087Q307.90564 202.64337 307.21814 202.64337Q306.42126 202.64337 305.96814 203.11212Q305.515 203.56525 305.515 204.39337L304.4369 204.39337Q304.4369 203.20587 305.1869 202.48712Q305.9525 201.75275 307.21814 201.75275Q308.42126 201.75275 309.10876 202.37775Q309.79626 203.00275 309.79626 204.04962Q309.79626 205.29962 308.1869 207.04962L305.90564 209.51837L310.1869 209.51837L310.1869 210.409Z" fill-rule="nonzero"/><path fill="#000000" d="M294.15564 210.409L293.0775 210.409L293.0775 203.19025L290.89 203.98712L290.89 203.00275L293.9994 201.83087L294.15564 201.83087L294.15564 210.409ZM303.10876 202.48712L299.5775 210.409L298.4369 210.409L301.9525 202.76837L297.34314 202.76837L297.34314 201.87775L303.10876 201.87775L303.10876 202.48712ZM310.1869 210.409L304.59314 210.409L304.59314 209.62775L307.54626 206.3465Q308.2025 205.5965 308.4525 205.14337Q308.7025 204.67462 308.7025 204.17462Q308.7025 203.50275 308.29626 203.08087Q307.90564 202.64337 307.21814 202.64337Q306.42126 202.64337 305.96814 203.11212Q305.515 203.56525 305.515 204.39337L304.4369 204.39337Q304.4369 203.20587 305.1869 202.48712Q305.9525 201.75275 307.21814 201.75275Q308.42126 201.75275 309.10876 202.37775Q309.79626 203.00275 309.79626 204.04962Q309.79626 205.29962 308.1869 207.04962L305.90564 209.51837L310.1869 209.51837L310.1869 210.409Z" fill-rule="nonzero"/><path stroke="#ffffff" stroke-width="3.0" stroke-linejoin="round" stroke-linecap="round" d="M512.8956 202.56325L511.8175 202.56325L511.8175 195.3445L509.63 196.14137L509.63 195.157L512.7394 193.98512L512.8956 193.98512L512.8956 202.56325ZM521.5206 196.25075Q521.5206 196.89137 521.1769 197.39137Q520.8331 197.89137 520.2706 198.17262Q520.9269 198.45387 521.3175 199.01637Q521.7081 199.56325 521.7081 200.26637Q521.7081 201.36012 520.9581 202.032Q520.22375 202.68825 519.005 202.68825Q517.7706 202.68825 517.0206 202.032Q516.28625 201.36012 516.28625 200.26637Q516.28625 199.56325 516.66125 199.01637Q517.03625 198.45387 517.7081 198.17262Q517.1456 197.89137 516.8175 197.39137Q516.4894 196.89137 516.4894 196.25075Q516.4894 195.17262 517.1769 194.54762Q517.8644 193.907 519.005 193.907Q520.13 193.907 520.8175 194.54762Q521.5206 195.17262 521.5206 196.25075ZM520.63 200.23512Q520.63 199.51637 520.1769 199.07887Q519.72375 198.62575 518.9894 198.62575Q518.255 198.62575 517.8019 199.07887Q517.3644 199.51637 517.3644 200.25075Q517.3644 200.9695 517.8019 201.39137Q518.2394 201.79762 519.005 201.79762Q519.755 201.79762 520.1925 201.37575Q520.63 200.95387 520.63 200.23512ZM519.005 194.79762Q518.3644 194.79762 517.9581 195.20387Q517.5675 195.5945 517.5675 196.282Q517.5675 196.92262 517.9581 197.32887Q518.34875 197.73512 518.9894 197.73512Q519.6456 197.73512 520.03625 197.32887Q520.4269 196.92262 520.4269 196.282Q520.4269 195.62575 520.0206 195.2195Q519.6144 194.79762 519.005 194.79762ZM526.8956 202.56325L525.8175 202.56325L525.8175 195.3445L523.63 196.14137L523.63 195.157L526.7394 193.98512L526.8956 193.98512L526.8956 202.56325Z" fill-rule="nonzero"/><path fill="#000000" d="M512.8956 202.56325L511.8175 202.56325L511.8175 195.3445L509.63 196.14137L509.63 195.157L512.7394 193.98512L512.8956 193.98512L512.8956 202.56325ZM521.5206 196.25075Q521.5206 196.89137 521.1769 197.39137Q520.8331 197.89137 520.2706 198.17262Q520.9269 198.45387 521.3175 199.01637Q521.7081 199.56325 521.7081 200.26637Q521.7081 201.36012 520.9581 202.032Q520.22375 202.68825 519.005 202.68825Q517.7706 202.68825 517.0206 202.032Q516.28625 201.36012 516.28625 200.26637Q516.28625 199.56325 516.66125 199.01637Q517.03625 198.45387 517.7081 198.17262Q517.1456 197.89137 516.8175 197.39137Q516.4894 196.89137 516.4894 196.25075Q516.4894 195.17262 517.1769 194.54762Q517.8644 193.907 519.005 193.907Q520.13 193.907 520.8175 194.54762Q521.5206 195.17262 521.5206 196.25075ZM520.63 200.23512Q520.63 199.51637 520.1769 199.07887Q519.72375 198.62575 518.9894 198.62575Q518.255 198.62575 517.8019 199.07887Q517.3644 199.51637 517.3644 200.25075Q517.3644 200.9695 517.8019 201.39137Q518.2394 201.79762 519.005 201.79762Q519.755 201.79762 520.1925 201.37575Q520.63 200.95387 520.63 200.23512ZM519.005 194.79762Q518.3644 194.79762 517.9581 195.20387Q517.5675 195.5945 517.5675 196.282Q517.5675 196.92262 517.9581 197.32887Q518.34875 197.73512 518.9894 197.73512Q519.6456 197.73512 520.03625 197.32887Q520.4269 196.92262 520.4269 196.282Q520.4269 195.62575 520.0206 195.2195Q519.6144 194.79762 519.005 194.79762ZM526.8956 202.56325L525.8175 202.56325L525.8175 195.3445L523.63 196.14137L523.63 195.157L526.7394 193.98512L526.8956 193.98512L526.8956 202.56325Z" fill-rule="nonzero"/><path stroke="#ffffff" stroke-width="3.0" stroke-linejoin="round" stroke-linecap="round" d="M731.6356 213.02425L730.5575 213.02425L730.5575 205.8055L728.37 206.60237L728.37 205.618L731.4794 204.44612L731.6356 204.44612L731.6356 213.02425ZM739.33875 204.493L739.33875 205.39925L739.1356 205.39925Q737.87 205.4305 737.12 206.16487Q736.37 206.88362 736.245 208.19612Q736.9325 207.4305 738.08875 207.4305Q739.1981 207.4305 739.87 208.21175Q740.5419 208.993 740.5419 210.243Q740.5419 211.5555 739.8231 212.35237Q739.1044 213.14925 737.8856 213.14925Q736.6669 213.14925 735.90125 212.21175Q735.15125 211.25862 735.15125 209.77425L735.15125 209.368Q735.15125 207.00862 736.15125 205.75862Q737.15125 204.50862 739.1356 204.493L739.33875 204.493ZM737.9169 208.33675Q737.3544 208.33675 736.8856 208.66487Q736.4169 208.993 736.2294 209.50862L736.2294 209.89925Q736.2294 210.96175 736.6981 211.60237Q737.1825 212.243 737.8856 212.243Q738.62 212.243 739.0419 211.71175Q739.46375 211.16487 739.46375 210.28987Q739.46375 209.41487 739.0419 208.88362Q738.62 208.33675 737.9169 208.33675ZM746.2294 209.27425Q745.90125 209.6805 745.4169 209.9305Q744.9481 210.16487 744.3856 210.16487Q743.65125 210.16487 743.1044 209.8055Q742.5575 209.44612 742.2606 208.78987Q741.96375 208.118 741.96375 207.32112Q741.96375 206.47737 742.27625 205.78987Q742.6044 205.10237 743.1981 204.743Q743.8075 204.368 744.6044 204.368Q745.87 204.368 746.58875 205.32112Q747.3231 206.27425 747.3231 207.89925L747.3231 208.21175Q747.3231 210.71175 746.33875 211.85237Q745.3544 212.993 743.37 213.02425L743.15125 213.02425L743.15125 212.118L743.3856 212.118Q744.7294 212.08675 745.4481 211.41487Q746.1669 210.743 746.2294 209.27425ZM744.5575 209.27425Q745.1044 209.27425 745.5575 208.94612Q746.02625 208.60237 746.245 208.118L746.245 207.6805Q746.245 206.618 745.77625 205.94612Q745.3075 205.27425 744.6044 205.27425Q743.8856 205.27425 743.4481 205.82112Q743.02625 206.368 743.02625 207.27425Q743.02625 208.14925 743.4325 208.71175Q743.8544 209.27425 744.5575 209.27425Z" fill-rule="nonzero"/><path fill="#000000" d="M731.6356 213.02425L730.5575 213.02425L730.5575 205.8055L728.37 206.60237L728.37 205.618L731.4794 204.44612L731.6356 204.44612L731.6356 213.02425ZM739.33875 204.493L739.33875 205.39925L739.1356 205.39925Q737.87 205.4305 737.12 206.16487Q736.37 206.88362 736.245 208.19612Q736.9325 207.4305 738.08875 207.4305Q739.1981 207.4305 739.87 208.21175Q740.5419 208.993 740.5419 210.243Q740.5419 211.5555 739.8231 212.35237Q739.1044 213.14925 737.8856 213.14925Q736.6669 213.14925 735.90125 212.21175Q735.15125 211.25862 735.15125 209.77425L735.15125 209.368Q735.15125 207.00862 736.15125 205.75862Q737.15125 204.50862 739.1356 204.493L739.33875 204.493ZM737.9169 208.33675Q737.3544 208.33675 736.8856 208.66487Q736.4169 208.993 736.2294 209.50862L736.2294 209.89925Q736.2294 210.96175 736.6981 211.60237Q737.1825 212.243 737.8856 212.243Q738.62 212.243 739.0419 211.71175Q739.46375 211.16487 739.46375 210.28987Q739.46375 209.41487 739.0419 208.88362Q738.62 208.33675 737.9169 208.33675ZM746.2294 209.27425Q745.90125 209.6805 745.4169 209.9305Q744.9481 210.16487 744.3856 210.16487Q743.65125 210.16487 743.1044 209.8055Q742.5575 209.44612 742.2606 208.78987Q741.96375 208.118 741.96375 207.32112Q741.96375 206.47737 742.27625 205.78987Q742.6044 205.10237 743.1981 204.743Q743.8075 204.368 744.6044 204.368Q745.87 204.368 746.58875 205.32112Q747.3231 206.27425 747.3231 207.89925L747.3231 208.21175Q747.3231 210.71175 746.33875 211.85237Q745.3544 212.993 743.37 213.02425L743.15125 213.02425L743.15125 212.118L743.3856 212.118Q744.7294 212.08675 745.4481 211.41487Q746.1669 210.743 746.2294 209.27425ZM744.5575 209.27425Q745.1044 209.27425 745.5575 208.94612Q746.02625 208.60237 746.245 208.118L746.245 207.6805Q746.245 206.618 745.77625 205.94612Q745.3075 205.27425 744.6044 205.27425Q743.8856 205.27425 743.4481 205.82112Q743.02625 206.368 743.02625 207.27425Q743.02625 208.14925 743.4325 208.71175Q743.8544 209.27425 744.5575 209.27425Z" fill-rule="nonzero"/><path stroke="#ffffff" stroke-width="3.0" stroke-linejoin="round" stroke-linecap="round" d="M952.40686 142.4125L946.8131 142.4125L946.8131 141.63126L949.76624 138.35Q950.4225 137.6 950.6725 137.14688Q950.9225 136.67813 950.9225 136.17813Q950.9225 135.50626 950.51624 135.08438Q950.1256 134.64688 949.4381 134.64688Q948.64124 134.64688 948.1881 135.11563Q947.735 135.56876 947.735 136.39688L946.65686 136.39688Q946.65686 135.20938 947.40686 134.49063Q948.1725 133.75626 949.4381 133.75626Q950.64124 133.75626 951.32874 134.38126Q952.01624 135.00626 952.01624 136.05313Q952.01624 137.30313 950.40686 139.05313L948.1256 141.52188L952.40686 141.52188L952.40686 142.4125ZM954.3131 138.13126L954.7506 133.88126L959.1256 133.88126L959.1256 134.88126L955.6725 134.88126L955.40686 137.20938Q956.0475 136.83438 956.84436 136.83438Q958.0006 136.83438 958.6881 137.61563Q959.3756 138.38126 959.3756 139.69376Q959.3756 141.00626 958.65686 141.77188Q957.95374 142.5375 956.6725 142.5375Q955.5475 142.5375 954.82874 141.9125Q954.11 141.27188 954.01624 140.1625L955.03186 140.1625Q955.14124 140.89688 955.5631 141.27188Q955.985 141.64688 956.6725 141.64688Q957.4225 141.64688 957.86 141.13126Q958.2975 140.61563 958.2975 139.70938Q958.2975 138.85 957.82874 138.33438Q957.36 137.81876 956.57874 137.81876Q955.8756 137.81876 955.46936 138.11563L955.1881 138.35L954.3131 138.13126ZM966.1725 138.77188Q966.1725 140.67813 965.51624 141.61563Q964.8756 142.5375 963.485 142.5375Q962.1256 142.5375 961.46936 141.63126Q960.8131 140.725 960.78186 138.9125L960.78186 137.475Q960.78186 135.58438 961.4225 134.67813Q962.07874 133.75626 963.46936 133.75626Q964.84436 133.75626 965.5006 134.64688Q966.15686 135.52188 966.1725 137.36563L966.1725 138.77188ZM965.07874 137.2875Q965.07874 135.9125 964.6881 135.2875Q964.3131 134.64688 963.46936 134.64688Q962.64124 134.64688 962.2506 135.2875Q961.8756 135.9125 961.8756 137.20938L961.8756 138.94376Q961.8756 140.31876 962.26624 140.99063Q962.6725 141.64688 963.485 141.64688Q964.28186 141.64688 964.6725 141.02188Q965.0631 140.39688 965.07874 139.06876L965.07874 137.2875Z" fill-rule="nonzero"/><path fill="#000000" d="M952.40686 142.4125L946.8131 142.4125L946.8131 141.63126L949.76624 138.35Q950.4225 137.6 950.6725 137.14688Q950.9225 136.67813 950.9225 136.17813Q950.9225 135.50626 950.51624 135.08438Q950.1256 134.64688 949.4381 134.64688Q948.64124 134.64688 948.1881 135.11563Q947.735 135.56876 947.735 136.39688L946.65686 136.39688Q946.65686 135.20938 947.40686 134.49063Q948.1725 133.75626 949.4381 133.75626Q950.64124 133.75626 951.32874 134.38126Q952.01624 135.00626 952.01624 136.05313Q952.01624 137.30313 950.40686 139.05313L948.1256 141.52188L952.40686 141.52188L952.40686 142.4125ZM954.3131 138.13126L954.7506 133.88126L959.1256 133.88126L959.1256 134.88126L955.6725 134.88126L955.40686 137.20938Q956.0475 136.83438 956.84436 136.83438Q958.0006 136.83438 958.6881 137.61563Q959.3756 138.38126 959.3756 139.69376Q959.3756 141.00626 958.65686 141.77188Q957.95374 142.5375 956.6725 142.5375Q955.5475 142.5375 954.82874 141.9125Q954.11 141.27188 954.01624 140.1625L955.03186 140.1625Q955.14124 140.89688 955.5631 141.27188Q955.985 141.64688 956.6725 141.64688Q957.4225 141.64688 957.86 141.13126Q958.2975 140.61563 958.2975 139.70938Q958.2975 138.85 957.82874 138.33438Q957.36 137.81876 956.57874 137.81876Q955.8756 137.81876 955.46936 138.11563L955.1881 138.35L954.3131 138.13126ZM966.1725 138.77188Q966.1725 140.67813 965.51624 141.61563Q964.8756 142.5375 963.485 142.5375Q962.1256 142.5375 961.46936 141.63126Q960.8131 140.725 960.78186 138.9125L960.78186 137.475Q960.78186 135.58438 961.4225 134.67813Q962.07874 133.75626 963.46936 133.75626Q964.84436 133.75626 965.5006 134.64688Q966.15686 135.52188 966.1725 137.36563L966.1725 138.77188ZM965.07874 137.2875Q965.07874 135.9125 964.6881 135.2875Q964.3131 134.64688 963.46936 134.64688Q962.64124 134.64688 962.2506 135.2875Q961.8756 135.9125 961.8756 137.20938L961.8756 138.94376Q961.8756 140.31876 962.26624 140.99063Q962.6725 141.64688 963.485 141.64688Q964.28186 141.64688 964.6725 141.02188Q965.0631 140.39688 965.07874 139.06876L965.07874 137.2875Z" fill-rule="nonzero"/><path fill="#000000" d="M587.875 424.19376L587.875 422.74063L591.6094 422.74063L591.6094 426.1625Q591.0625 426.69376 590.03125 427.1Q589.0 427.49063 587.9375 427.49063Q586.59375 427.49063 585.5781 426.92813Q584.5781 426.36563 584.0781 425.31876Q583.5781 424.25626 583.5781 423.02188Q583.5781 421.67813 584.1406 420.64688Q584.7031 419.6 585.78125 419.0375Q586.6094 418.61563 587.84375 418.61563Q589.4375 418.61563 590.3281 419.2875Q591.2344 419.95938 591.5 421.13126L589.78125 421.45938Q589.59375 420.83438 589.09375 420.475Q588.59375 420.1 587.84375 420.1Q586.7031 420.1 586.03125 420.81876Q585.3594 421.5375 585.3594 422.95938Q585.3594 424.49063 586.03125 425.25626Q586.71875 426.00626 587.8281 426.00626Q588.375 426.00626 588.9219 425.80313Q589.46875 425.58438 589.8594 425.2875L589.8594 424.19376L587.875 424.19376ZM593.4375 427.35L591.7969 427.35L591.7969 421.13126L593.3281 421.13126L593.3281 422.00626Q593.71875 421.38126 594.03125 421.19376Q594.34375 420.99063 594.7344 420.99063Q595.2969 420.99063 595.8281 421.30313L595.3125 422.725Q594.8906 422.45938 594.5469 422.45938Q594.1875 422.45938 593.9531 422.6625Q593.71875 422.85 593.5781 423.35Q593.4375 423.83438 593.4375 425.42813L593.4375 427.35ZM598.09375 423.02188L596.59375 422.75626Q596.84375 421.85 597.4531 421.42813Q598.0781 420.99063 599.2969 420.99063Q600.3906 420.99063 600.9219 421.25626Q601.46875 421.50626 601.6875 421.9125Q601.90625 422.30313 601.90625 423.38126L601.8906 425.30313Q601.8906 426.13126 601.96875 426.52188Q602.0469 426.89688 602.2656 427.35L600.6406 427.35Q600.5781 427.17813 600.4844 426.86563Q600.4375 426.70938 600.4219 426.6625Q600.0 427.08438 599.5156 427.2875Q599.0469 427.49063 598.5 427.49063Q597.53125 427.49063 596.96875 426.975Q596.4219 426.44376 596.4219 425.64688Q596.4219 425.11563 596.6719 424.70938Q596.9375 424.30313 597.3906 424.08438Q597.84375 423.85 598.7031 423.69376Q599.84375 423.475 600.2969 423.2875L600.2969 423.13126Q600.2969 422.64688 600.0625 422.44376Q599.8281 422.24063 599.1719 422.24063Q598.7344 422.24063 598.4844 422.4125Q598.25 422.58438 598.09375 423.02188ZM600.2969 424.36563Q599.9844 424.45938 599.2969 424.61563Q598.6094 424.75626 598.3906 424.89688Q598.0781 425.13126 598.0781 425.475Q598.0781 425.81876 598.3281 426.08438Q598.59375 426.33438 598.9844 426.33438Q599.4375 426.33438 599.84375 426.0375Q600.1406 425.81876 600.2344 425.49063Q600.2969 425.2875 600.2969 424.69376L600.2969 424.36563ZM609.5625 427.35L608.0469 427.35L608.0469 426.42813Q607.65625 426.975 607.1406 427.24063Q606.625 427.49063 606.09375 427.49063Q605.0156 427.49063 604.25 426.63126Q603.5 425.75626 603.5 424.20938Q603.5 422.63126 604.2344 421.81876Q604.9844 420.99063 606.125 420.99063Q607.15625 420.99063 607.9219 421.85L607.9219 418.75626L609.5625 418.75626L609.5625 427.35ZM605.1719 424.1Q605.1719 425.1 605.4531 425.5375Q605.84375 426.19376 606.5625 426.19376Q607.125 426.19376 607.5156 425.70938Q607.9219 425.225 607.9219 424.25626Q607.9219 423.19376 607.53125 422.725Q607.15625 422.24063 606.5469 422.24063Q605.96875 422.24063 605.5625 422.70938Q605.1719 423.17813 605.1719 424.1ZM614.9531 427.35L614.9531 426.4125Q614.625 426.9125 614.0625 427.20938Q613.5156 427.49063 612.8906 427.49063Q612.2656 427.49063 611.7656 427.225Q611.2656 426.94376 611.0469 426.44376Q610.8281 425.94376 610.8281 425.06876L610.8281 421.13126L612.46875 421.13126L612.46875 423.99063Q612.46875 425.30313 612.5625 425.6Q612.65625 425.89688 612.8906 426.06876Q613.1406 426.24063 613.5 426.24063Q613.9219 426.24063 614.25 426.00626Q614.59375 425.77188 614.71875 425.42813Q614.84375 425.08438 614.84375 423.75626L614.84375 421.13126L616.4844 421.13126L616.4844 427.35L614.9531 427.35ZM619.09375 423.02188L617.59375 422.75626Q617.84375 421.85 618.4531 421.42813Q619.0781 420.99063 620.2969 420.99063Q621.3906 420.99063 621.9219 421.25626Q622.46875 421.50626 622.6875 421.9125Q622.90625 422.30313 622.90625 423.38126L622.8906 425.30313Q622.8906 426.13126 622.96875 426.52188Q623.0469 426.89688 623.2656 427.35L621.6406 427.35Q621.5781 427.17813 621.4844 426.86563Q621.4375 426.70938 621.4219 426.6625Q621.0 427.08438 620.5156 427.2875Q620.0469 427.49063 619.5 427.49063Q618.53125 427.49063 617.96875 426.975Q617.4219 426.44376 617.4219 425.64688Q617.4219 425.11563 617.6719 424.70938Q617.9375 424.30313 618.3906 424.08438Q618.84375 423.85 619.7031 423.69376Q620.84375 423.475 621.2969 423.2875L621.2969 423.13126Q621.2969 422.64688 621.0625 422.44376Q620.8281 422.24063 620.1719 422.24063Q619.7344 422.24063 619.4844 422.4125Q619.25 422.58438 619.09375 423.02188ZM621.2969 424.36563Q620.9844 424.45938 620.2969 424.61563Q619.6094 424.75626 619.3906 424.89688Q619.0781 425.13126 619.0781 425.475Q619.0781 425.81876 619.3281 426.08438Q619.59375 426.33438 619.9844 426.33438Q620.4375 426.33438 620.84375 426.0375Q621.1406 425.81876 621.2344 425.49063Q621.2969 425.2875 621.2969 424.69376L621.2969 424.36563ZM627.71875 421.13126L627.71875 422.44376L626.59375 422.44376L626.59375 424.94376Q626.59375 425.70938 626.625 425.83438Q626.65625 425.95938 626.7656 426.05313Q626.8906 426.13126 627.0469 426.13126Q627.28125 426.13126 627.7031 425.95938L627.84375 427.24063Q627.28125 427.49063 626.5469 427.49063Q626.1094 427.49063 625.75 427.35Q625.3906 427.19376 625.21875 426.95938Q625.0625 426.70938 624.9844 426.31876Q624.9375 426.02188 624.9375 425.14688L624.9375 422.44376L624.1875 422.44376L624.1875 421.13126L624.9375 421.13126L624.9375 419.89688L626.59375 418.92813L626.59375 421.13126L627.71875 421.13126ZM628.8594 420.2875L628.8594 418.75626L630.5156 418.75626L630.5156 420.2875L628.8594 420.2875ZM628.8594 427.35L628.8594 421.13126L630.5156 421.13126L630.5156 427.35L628.8594 427.35ZM631.4844 424.14688Q631.4844 423.33438 631.8906 422.56876Q632.2969 421.7875 633.03125 421.39688Q633.7656 420.99063 634.6875 420.99063Q636.09375 420.99063 637.0 421.9125Q637.90625 422.81876 637.90625 424.225Q637.90625 425.63126 636.9844 426.56876Q636.0781 427.49063 634.7031 427.49063Q633.84375 427.49063 633.0625 427.1Q632.2969 426.70938 631.8906 425.975Q631.4844 425.225 631.4844 424.14688ZM633.1719 424.24063Q633.1719 425.1625 633.6094 425.6625Q634.0469 426.14688 634.6875 426.14688Q635.34375 426.14688 635.7656 425.6625Q636.2031 425.1625 636.2031 424.225Q636.2031 423.31876 635.7656 422.83438Q635.34375 422.33438 634.6875 422.33438Q634.0469 422.33438 633.6094 422.83438Q633.1719 423.31876 633.1719 424.24063ZM644.5156 427.35L642.875 427.35L642.875 424.17813Q642.875 423.1625 642.7656 422.86563Q642.6719 422.56876 642.4219 422.4125Q642.1875 422.24063 641.8594 422.24063Q641.4219 422.24063 641.0781 422.475Q640.75 422.70938 640.625 423.1Q640.5 423.49063 640.5 424.5375L640.5 427.35L638.84375 427.35L638.84375 421.13126L640.375 421.13126L640.375 422.0375Q641.1875 420.99063 642.4375 420.99063Q642.96875 420.99063 643.4219 421.19376Q643.875 421.38126 644.1094 421.69376Q644.34375 421.99063 644.4219 422.38126Q644.5156 422.75626 644.5156 423.475L644.5156 427.35ZM651.125 427.35L651.125 423.74063L647.9844 418.75626L650.0156 418.75626L652.03125 422.1625L654.0156 418.75626L656.0156 418.75626L652.8594 423.74063L652.8594 427.35L651.125 427.35ZM659.46875 425.36563L661.1094 425.64688Q660.7969 426.55313 660.1094 427.02188Q659.4219 427.49063 658.40625 427.49063Q656.78125 427.49063 656.0 426.42813Q655.375 425.58438 655.375 424.2875Q655.375 422.74063 656.1875 421.86563Q657.0 420.99063 658.2344 420.99063Q659.625 420.99063 660.4219 421.9125Q661.2344 422.81876 661.1875 424.70938L657.0625 424.70938Q657.09375 425.44376 657.46875 425.85Q657.84375 426.25626 658.4219 426.25626Q658.7969 426.25626 659.0625 426.05313Q659.3281 425.83438 659.46875 425.36563ZM659.5625 423.70938Q659.5469 422.99063 659.1875 422.61563Q658.84375 422.24063 658.3281 422.24063Q657.7969 422.24063 657.4375 422.63126Q657.09375 423.0375 657.09375 423.70938L659.5625 423.70938ZM664.09375 423.02188L662.59375 422.75626Q662.84375 421.85 663.4531 421.42813Q664.0781 420.99063 665.2969 420.99063Q666.3906 420.99063 666.9219 421.25626Q667.46875 421.50626 667.6875 421.9125Q667.90625 422.30313 667.90625 423.38126L667.8906 425.30313Q667.8906 426.13126 667.96875 426.52188Q668.0469 426.89688 668.2656 427.35L666.6406 427.35Q666.5781 427.17813 666.4844 426.86563Q666.4375 426.70938 666.4219 426.6625Q666.0 427.08438 665.5156 427.2875Q665.0469 427.49063 664.5 427.49063Q663.53125 427.49063 662.96875 426.975Q662.4219 426.44376 662.4219 425.64688Q662.4219 425.11563 662.6719 424.70938Q662.9375 424.30313 663.3906 424.08438Q663.84375 423.85 664.7031 423.69376Q665.84375 423.475 666.2969 423.2875L666.2969 423.13126Q666.2969 422.64688 666.0625 422.44376Q665.8281 422.24063 665.1719 422.24063Q664.7344 422.24063 664.4844 422.4125Q664.25 422.58438 664.09375 423.02188ZM666.2969 424.36563Q665.9844 424.45938 665.2969 424.61563Q664.6094 424.75626 664.3906 424.89688Q664.0781 425.13126 664.0781 425.475Q664.0781 425.81876 664.3281 426.08438Q664.59375 426.33438 664.9844 426.33438Q665.4375 426.33438 665.84375 426.0375Q666.1406 425.81876 666.2344 425.49063Q666.2969 425.2875 666.2969 424.69376L666.2969 424.36563ZM671.4375 427.35L669.7969 427.35L669.7969 421.13126L671.3281 421.13126L671.3281 422.00626Q671.71875 421.38126 672.03125 421.19376Q672.34375 420.99063 672.7344 420.99063Q673.2969 420.99063 673.8281 421.30313L673.3125 422.725Q672.8906 422.45938 672.5469 422.45938Q672.1875 422.45938 671.9531 422.6625Q671.71875 422.85 671.5781 423.35Q671.4375 423.83438 671.4375 425.42813L671.4375 427.35Z" fill-rule="nonzero"/><path fill="#000000" d="M33.650005 270.60938L25.056255 270.60938L25.056255 268.92188L30.79063 265.40625L25.056255 265.40625L25.056255 263.79688L33.650005 263.79688L33.650005 265.53125L28.04063 269.0L33.650005 269.0L33.650005 270.60938ZM33.650005 258.54688L32.712505 258.54688Q33.212505 258.875 33.50938 259.4375Q33.79063 259.98438 33.79063 260.60938Q33.79063 261.23438 33.525005 261.73438Q33.243755 262.23438 32.743755 262.45312Q32.243755 262.67188 31.368755 262.67188L27.431255 262.67188L27.431255 261.03125L30.29063 261.03125Q31.60313 261.03125 31.900005 260.9375Q32.19688 260.84375 32.368755 260.60938Q32.54063 260.35938 32.54063 260.0Q32.54063 259.57812 32.306255 259.25Q32.07188 258.90625 31.72813 258.78125Q31.38438 258.65625 30.056255 258.65625L27.431255 258.65625L27.431255 257.01562L33.650005 257.01562L33.650005 258.54688ZM27.431255 255.76562L27.431255 254.25L28.275005 254.25Q27.29063 253.42188 27.29063 252.29688Q27.29063 251.70312 27.54063 251.26562Q27.775005 250.82812 28.275005 250.54688Q27.775005 250.14062 27.54063 249.67188Q27.29063 249.1875 27.29063 248.64062Q27.29063 247.96875 27.57188 247.5Q27.837505 247.01562 28.38438 246.78125Q28.775005 246.60938 29.66563 246.60938L33.650005 246.60938L33.650005 248.25L30.087505 248.25Q29.16563 248.25 28.900005 248.42188Q28.54063 248.65625 28.54063 249.125Q28.54063 249.46875 28.75938 249.78125Q28.962505 250.07812 29.368755 250.21875Q29.775005 250.35938 30.66563 250.35938L33.650005 250.35938L33.650005 252.0L30.243755 252.0Q29.337505 252.0 29.07188 252.09375Q28.806255 252.17188 28.681255 252.35938Q28.54063 252.54688 28.54063 252.85938Q28.54063 253.23438 28.75938 253.54688Q28.962505 253.84375 29.35313 253.98438Q29.72813 254.10938 30.618755 254.10938L33.650005 254.10938L33.650005 255.76562L27.431255 255.76562ZM33.650005 244.70312L25.056255 244.70312L25.056255 243.0625L28.150005 243.0625Q27.29063 242.29688 27.29063 241.25Q27.29063 240.125 28.118755 239.375Q28.931255 238.625 30.47813 238.625Q32.07188 238.625 32.931255 239.39062Q33.79063 240.15625 33.79063 241.23438Q33.79063 241.76562 33.525005 242.28125Q33.25938 242.79688 32.72813 243.17188L33.650005 243.17188L33.650005 244.70312ZM30.400005 243.07812Q31.368755 243.07812 31.837505 242.76562Q32.493755 242.34375 32.493755 241.625Q32.493755 241.09375 32.025005 240.70312Q31.556255 240.3125 30.556255 240.3125Q29.493755 240.3125 29.025005 240.70312Q28.54063 241.09375 28.54063 241.70312Q28.54063 242.28125 29.00938 242.6875Q29.462505 243.07812 30.400005 243.07812ZM31.66563 234.03125L31.94688 232.39062Q32.85313 232.70312 33.32188 233.39062Q33.79063 234.07812 33.79063 235.09375Q33.79063 236.71875 32.72813 237.5Q31.88438 238.125 30.587505 238.125Q29.04063 238.125 28.16563 237.3125Q27.29063 236.5 27.29063 235.26562Q27.29063 233.875 28.212505 233.07812Q29.118755 232.26562 31.00938 232.3125L31.00938 236.4375Q31.743755 236.40625 32.150005 236.03125Q32.556255 235.65625 32.556255 235.07812Q32.556255 234.70312 32.35313 234.4375Q32.13438 234.17188 31.66563 234.03125ZM30.00938 233.9375Q29.29063 233.95312 28.91563 234.3125Q28.54063 234.65625 28.54063 235.17188Q28.54063 235.70312 28.931255 236.0625Q29.337505 236.40625 30.00938 236.40625L30.00938 233.9375ZM33.650005 229.0625L33.650005 230.70312L27.431255 230.70312L27.431255 229.17188L28.306255 229.17188Q27.681255 228.78125 27.493755 228.46875Q27.29063 228.15625 27.29063 227.76562Q27.29063 227.20312 27.60313 226.67188L29.025005 227.1875Q28.75938 227.60938 28.75938 227.95312Q28.75938 228.3125 28.962505 228.54688Q29.150005 228.78125 29.650005 228.92188Q30.13438 229.0625 31.72813 229.0625L33.650005 229.0625ZM30.44688 223.01562Q29.63438 223.01562 28.868755 222.60938Q28.087505 222.20312 27.69688 221.46875Q27.29063 220.73438 27.29063 219.8125Q27.29063 218.40625 28.212505 217.5Q29.118755 216.59375 30.525005 216.59375Q31.931255 216.59375 32.868755 217.51562Q33.79063 218.42188 33.79063 219.79688Q33.79063 220.65625 33.400005 221.4375Q33.00938 222.20312 32.275005 222.60938Q31.525005 223.01562 30.44688 223.01562ZM30.54063 221.32812Q31.462505 221.32812 31.962505 220.89062Q32.44688 220.45312 32.44688 219.8125Q32.44688 219.15625 31.962505 218.73438Q31.462505 218.29688 30.525005 218.29688Q29.618755 218.29688 29.13438 218.73438Q28.63438 219.15625 28.63438 219.8125Q28.63438 220.45312 29.13438 220.89062Q29.618755 221.32812 30.54063 221.32812ZM27.431255 216.35938L27.431255 215.4375L26.962505 215.4375Q26.16563 215.4375 25.79063 215.28125Q25.400005 215.10938 25.16563 214.67188Q24.91563 214.21875 24.91563 213.53125Q24.91563 212.82812 25.118755 212.15625L26.275005 212.375Q26.181255 212.76562 26.181255 213.125Q26.181255 213.48438 26.35313 213.64062Q26.50938 213.79688 26.993755 213.79688L27.431255 213.79688L27.431255 212.5625L28.72813 212.5625L28.72813 213.79688L33.650005 213.79688L33.650005 215.4375L28.72813 215.4375L28.72813 216.35938L27.431255 216.35938ZM25.056255 205.53125L25.056255 203.79688L30.493755 203.79688Q31.556255 203.79688 32.13438 203.98438Q32.88438 204.23438 33.337505 204.90625Q33.79063 205.5625 33.79063 206.64062Q33.79063 207.92188 33.087505 208.60938Q32.368755 209.28125 30.993755 209.29688L30.806255 207.65625Q31.54063 207.625 31.85313 207.4375Q32.306255 207.15625 32.306255 206.59375Q32.306255 206.0 31.97813 205.76562Q31.650005 205.53125 30.60313 205.53125L25.056255 205.53125ZM30.44688 202.01562Q29.63438 202.01562 28.868755 201.60938Q28.087505 201.20312 27.69688 200.46875Q27.29063 199.73438 27.29063 198.8125Q27.29063 197.40625 28.212505 196.5Q29.118755 195.59375 30.525005 195.59375Q31.931255 195.59375 32.868755 196.51562Q33.79063 197.42188 33.79063 198.79688Q33.79063 199.65625 33.400005 200.4375Q33.00938 201.20312 32.275005 201.60938Q31.525005 202.01562 30.44688 202.01562ZM30.54063 200.32812Q31.462505 200.32812 31.962505 199.89062Q32.44688 199.45312 32.44688 198.8125Q32.44688 198.15625 31.962505 197.73438Q31.462505 197.29688 30.525005 197.29688Q29.618755 197.29688 29.13438 197.73438Q28.63438 198.15625 28.63438 198.8125Q28.63438 199.45312 29.13438 199.89062Q29.618755 200.32812 30.54063 200.32812ZM33.650005 194.70312L25.056255 194.70312L25.056255 193.0625L28.150005 193.0625Q27.29063 192.29688 27.29063 191.25Q27.29063 190.125 28.118755 189.375Q28.931255 188.625 30.47813 188.625Q32.07188 188.625 32.931255 189.39062Q33.79063 190.15625 33.79063 191.23438Q33.79063 191.76562 33.525005 192.28125Q33.25938 192.79688 32.72813 193.17188L33.650005 193.17188L33.650005 194.70312ZM30.400005 193.07812Q31.368755 193.07812 31.837505 192.76562Q32.493755 192.34375 32.493755 191.625Q32.493755 191.09375 32.025005 190.70312Q31.556255 190.3125 30.556255 190.3125Q29.493755 190.3125 29.025005 190.70312Q28.54063 191.09375 28.54063 191.70312Q28.54063 192.28125 29.00938 192.6875Q29.462505 193.07812 30.400005 193.07812ZM29.400005 184.98438Q28.087505 184.98438 27.19688 184.57812Q26.54063 184.29688 26.025005 183.79688Q25.50938 183.28125 25.25938 182.67188Q24.91563 181.875 24.91563 180.82812Q24.91563 178.92188 26.10313 177.78125Q27.275005 176.64062 29.368755 176.64062Q31.44688 176.64062 32.618755 177.78125Q33.79063 178.90625 33.79063 180.79688Q33.79063 182.71875 32.63438 183.85938Q31.462505 184.98438 29.400005 184.98438ZM29.35313 183.1875Q30.806255 183.1875 31.556255 182.51562Q32.306255 181.84375 32.306255 180.8125Q32.306255 179.76562 31.57188 179.10938Q30.82188 178.4375 29.32188 178.4375Q27.85313 178.4375 27.13438 179.09375Q26.400005 179.73438 26.400005 180.8125Q26.400005 181.875 27.13438 182.53125Q27.868755 183.1875 29.35313 183.1875ZM27.431255 176.35938L27.431255 175.4375L26.962505 175.4375Q26.16563 175.4375 25.79063 175.28125Q25.400005 175.10938 25.16563 174.67188Q24.91563 174.21875 24.91563 173.53125Q24.91563 172.82812 25.118755 172.15625L26.275005 172.375Q26.181255 172.76562 26.181255 173.125Q26.181255 173.48438 26.35313 173.64062Q26.50938 173.79688 26.993755 173.79688L27.431255 173.79688L27.431255 172.5625L28.72813 172.5625L28.72813 173.79688L33.650005 173.79688L33.650005 175.4375L28.72813 175.4375L28.72813 176.35938L27.431255 176.35938ZM27.431255 172.35938L27.431255 171.4375L26.962505 171.4375Q26.16563 171.4375 25.79063 171.28125Q25.400005 171.10938 25.16563 170.67188Q24.91563 170.21875 24.91563 169.53125Q24.91563 168.82812 25.118755 168.15625L26.275005 168.375Q26.181255 168.76562 26.181255 169.125Q26.181255 169.48438 26.35313 169.64062Q26.50938 169.79688 26.993755 169.79688L27.431255 169.79688L27.431255 168.5625L28.72813 168.5625L28.72813 169.79688L33.650005 169.79688L33.650005 171.4375L28.72813 171.4375L28.72813 172.35938L27.431255 172.35938ZM31.66563 164.03125L31.94688 162.39062Q32.85313 162.70312 33.32188 163.39062Q33.79063 164.07812 33.79063 165.09375Q33.79063 166.71875 32.72813 167.5Q31.88438 168.125 30.587505 168.125Q29.04063 168.125 28.16563 167.3125Q27.29063 166.5 27.29063 165.26562Q27.29063 163.875 28.212505 163.07812Q29.118755 162.26562 31.00938 162.3125L31.00938 166.4375Q31.743755 166.40625 32.150005 166.03125Q32.556255 165.65625 32.556255 165.07812Q32.556255 164.70312 32.35313 164.4375Q32.13438 164.17188 31.66563 164.03125ZM30.00938 163.9375Q29.29063 163.95312 28.91563 164.3125Q28.54063 164.65625 28.54063 165.17188Q28.54063 165.70312 28.931255 166.0625Q29.337505 166.40625 30.00938 166.40625L30.00938 163.9375ZM33.650005 159.0625L33.650005 160.70312L27.431255 160.70312L27.431255 159.17188L28.306255 159.17188Q27.681255 158.78125 27.493755 158.46875Q27.29063 158.15625 27.29063 157.76562Q27.29063 157.20312 27.60313 156.67188L29.025005 157.1875Q28.75938 157.60938 28.75938 157.95312Q28.75938 158.3125 28.962505 158.54688Q29.150005 158.78125 29.650005 158.92188Q30.13438 159.0625 31.72813 159.0625L33.650005 159.0625ZM31.868755 156.21875L31.618755 154.5625Q32.10313 154.45312 32.35313 154.14062Q32.60313 153.8125 32.60313 153.23438Q32.60313 152.59375 32.368755 152.28125Q32.19688 152.0625 31.931255 152.0625Q31.743755 152.0625 31.618755 152.17188Q31.493755 152.29688 31.400005 152.71875Q30.962505 154.71875 30.60313 155.25Q30.087505 155.98438 29.19688 155.98438Q28.38438 155.98438 27.837505 155.35938Q27.29063 154.71875 27.29063 153.375Q27.29063 152.09375 27.712505 151.46875Q28.118755 150.84375 28.931255 150.60938L29.212505 152.17188Q28.85313 152.26562 28.66563 152.54688Q28.462505 152.82812 28.462505 153.34375Q28.462505 153.98438 28.650005 154.26562Q28.775005 154.45312 28.97813 154.45312Q29.16563 154.45312 29.29063 154.29688Q29.44688 154.07812 29.743755 152.76562Q30.04063 151.4375 30.47813 150.92188Q30.91563 150.40625 31.69688 150.40625Q32.556255 150.40625 33.181255 151.125Q33.79063 151.82812 33.79063 153.23438Q33.79063 154.5 33.275005 155.25Q32.75938 155.98438 31.868755 156.21875Z" fill-rule="nonzero"/><path fill="#000000" d="M69.15 378.11563Q69.15 376.58438 69.4625 375.6625Q69.775 374.725 70.38438 374.225Q71.00938 373.725 71.94688 373.725Q72.63438 373.725 73.15 374.00626Q73.68125 374.2875 74.025 374.81876Q74.36875 375.33438 74.55625 376.08438Q74.74375 376.83438 74.74375 378.11563Q74.74375 379.63126 74.43125 380.55313Q74.13438 381.475 73.50938 381.99063Q72.9 382.49063 71.94688 382.49063Q70.7125 382.49063 69.99375 381.6Q69.15 380.5375 69.15 378.11563ZM70.22813 378.11563Q70.22813 380.225 70.72813 380.92813Q71.22813 381.63126 71.94688 381.63126Q72.68125 381.63126 73.16563 380.92813Q73.66563 380.225 73.66563 378.11563Q73.66563 375.99063 73.16563 375.30313Q72.68125 374.6 71.93125 374.6Q71.2125 374.6 70.775 375.20938Q70.22813 375.99063 70.22813 378.11563Z" fill-rule="nonzero"/><path fill="#000000" d="M59.11875 295.175L58.071877 295.175L58.071877 288.45624Q57.68125 288.8156 57.05625 289.1906Q56.446877 289.55 55.9625 289.72186L55.9625 288.70624Q56.8375 288.28436 57.49375 287.70624Q58.165627 287.1125 58.446877 286.55L59.11875 286.55L59.11875 295.175ZM62.15 290.9406Q62.15 289.40936 62.4625 288.4875Q62.775 287.55 63.384377 287.05Q64.00938 286.55 64.94688 286.55Q65.63438 286.55 66.15 286.83124Q66.68125 287.1125 67.025 287.64374Q67.36875 288.15936 67.55625 288.90936Q67.74375 289.65936 67.74375 290.9406Q67.74375 292.45624 67.43125 293.3781Q67.13438 294.3 66.50938 294.8156Q65.9 295.3156 64.94688 295.3156Q63.7125 295.3156 62.99375 294.425Q62.15 293.3625 62.15 290.9406ZM63.228127 290.9406Q63.228127 293.05 63.728127 293.7531Q64.22813 294.45624 64.94688 294.45624Q65.68125 294.45624 66.16563 293.7531Q66.66563 293.05 66.66563 290.9406Q66.66563 288.8156 66.16563 288.1281Q65.68125 287.425 64.93125 287.425Q64.2125 287.425 63.775 288.03436Q63.228127 288.8156 63.228127 290.9406ZM69.15 290.9406Q69.15 289.40936 69.4625 288.4875Q69.775 287.55 70.38438 287.05Q71.00938 286.55 71.94688 286.55Q72.63438 286.55 73.15 286.83124Q73.68125 287.1125 74.025 287.64374Q74.36875 288.15936 74.55625 288.90936Q74.74375 289.65936 74.74375 290.9406Q74.74375 292.45624 74.43125 293.3781Q74.13438 294.3 73.50938 294.8156Q72.9 295.3156 71.94688 295.3156Q70.7125 295.3156 69.99375 294.425Q69.15 293.3625 69.15 290.9406ZM70.22813 290.9406Q70.22813 293.05 70.72813 293.7531Q71.22813 294.45624 71.94688 294.45624Q72.68125 294.45624 73.16563 293.7531Q73.66563 293.05 73.66563 290.9406Q73.66563 288.8156 73.16563 288.1281Q72.68125 287.425 71.93125 287.425Q71.2125 287.425 70.775 288.03436Q70.22813 288.8156 70.22813 290.9406Z" fill-rule="nonzero"/><path fill="#000000" d="M60.696877 206.98438L60.696877 208.0L55.009377 208.0Q55.009377 207.625 55.134377 207.26562Q55.353127 206.6875 55.821877 206.125Q56.30625 205.5625 57.2125 204.82812Q58.61875 203.67188 59.103127 203.0Q59.603127 202.32812 59.603127 201.73438Q59.603127 201.10938 59.15 200.6875Q58.696877 200.25 57.978127 200.25Q57.2125 200.25 56.759377 200.70312Q56.30625 201.15625 56.290627 201.96875L55.2125 201.85938Q55.321877 200.64062 56.040627 200.01562Q56.775 199.375 58.009377 199.375Q59.24375 199.375 59.9625 200.0625Q60.68125 200.75 60.68125 201.76562Q60.68125 202.28125 60.4625 202.78125Q60.259377 203.26562 59.759377 203.82812Q59.275 204.375 58.15 205.32812Q57.196877 206.125 56.915627 206.42188Q56.65 206.70312 56.478127 206.98438L60.696877 206.98438ZM62.15 203.76562Q62.15 202.23438 62.4625 201.3125Q62.775 200.375 63.384377 199.875Q64.00938 199.375 64.94688 199.375Q65.63438 199.375 66.15 199.65625Q66.68125 199.9375 67.025 200.46875Q67.36875 200.98438 67.55625 201.73438Q67.74375 202.48438 67.74375 203.76562Q67.74375 205.28125 67.43125 206.20312Q67.13438 207.125 66.50938 207.64062Q65.9 208.14062 64.94688 208.14062Q63.7125 208.14062 62.99375 207.25Q62.15 206.1875 62.15 203.76562ZM63.228127 203.76562Q63.228127 205.875 63.728127 206.57812Q64.22813 207.28125 64.94688 207.28125Q65.68125 207.28125 66.16563 206.57812Q66.66563 205.875 66.66563 203.76562Q66.66563 201.64062 66.16563 200.95312Q65.68125 200.25 64.93125 200.25Q64.2125 200.25 63.775 200.85938Q63.228127 201.64062 63.228127 203.76562ZM69.15 203.76562Q69.15 202.23438 69.4625 201.3125Q69.775 200.375 70.38438 199.875Q71.00938 199.375 71.94688 199.375Q72.63438 199.375 73.15 199.65625Q73.68125 199.9375 74.025 200.46875Q74.36875 200.98438 74.55625 201.73438Q74.74375 202.48438 74.74375 203.76562Q74.74375 205.28125 74.43125 206.20312Q74.13438 207.125 73.50938 207.64062Q72.9 208.14062 71.94688 208.14062Q70.7125 208.14062 69.99375 207.25Q69.15 206.1875 69.15 203.76562ZM70.22813 203.76562Q70.22813 205.875 70.72813 206.57812Q71.22813 207.28125 71.94688 207.28125Q72.68125 207.28125 73.16563 206.57812Q73.66563 205.875 73.66563 203.76562Q73.66563 201.64062 73.16563 200.95312Q72.68125 200.25 71.93125 200.25Q71.2125 200.25 70.775 200.85938Q70.22813 201.64062 70.22813 203.76562Z" fill-rule="nonzero"/><path fill="#000000" d="M55.15 118.55937L56.2125 118.41875Q56.384377 119.30937 56.821877 119.71562Q57.259377 120.10625 57.884377 120.10625Q58.634377 120.10625 59.15 119.59062Q59.665627 119.075 59.665627 118.30937Q59.665627 117.59062 59.18125 117.12187Q58.7125 116.6375 57.978127 116.6375Q57.68125 116.6375 57.228127 116.7625L57.353127 115.825Q57.4625 115.84062 57.525 115.84062Q58.196877 115.84062 58.728127 115.49687Q59.275 115.1375 59.275 114.40312Q59.275 113.825 58.884377 113.45Q58.49375 113.05937 57.86875 113.05937Q57.259377 113.05937 56.8375 113.45Q56.43125 113.84062 56.321877 114.60625L55.259377 114.41875Q55.446877 113.37187 56.134377 112.79375Q56.821877 112.2 57.8375 112.2Q58.540627 112.2 59.134377 112.5125Q59.728127 112.80937 60.040627 113.325Q60.353127 113.84062 60.353127 114.43437Q60.353127 114.98125 60.05625 115.45Q59.759377 115.90312 59.18125 116.16875Q59.93125 116.34062 60.353127 116.90312Q60.775 117.45 60.775 118.29375Q60.775 119.41875 59.946877 120.2Q59.134377 120.98125 57.884377 120.98125Q56.759377 120.98125 56.009377 120.30937Q55.259377 119.62187 55.15 118.55937ZM62.15 116.59062Q62.15 115.05937 62.4625 114.1375Q62.775 113.2 63.384377 112.7Q64.00938 112.2 64.94688 112.2Q65.63438 112.2 66.15 112.48125Q66.68125 112.7625 67.025 113.29375Q67.36875 113.80937 67.55625 114.55937Q67.74375 115.30937 67.74375 116.59062Q67.74375 118.10625 67.43125 119.02812Q67.13438 119.95 66.50938 120.46562Q65.9 120.96562 64.94688 120.96562Q63.7125 120.96562 62.99375 120.075Q62.15 119.0125 62.15 116.59062ZM63.228127 116.59062Q63.228127 118.7 63.728127 119.40312Q64.22813 120.10625 64.94688 120.10625Q65.68125 120.10625 66.16563 119.40312Q66.66563 118.7 66.66563 116.59062Q66.66563 114.46562 66.16563 113.77812Q65.68125 113.075 64.93125 113.075Q64.2125 113.075 63.775 113.68437Q63.228127 114.46562 63.228127 116.59062ZM69.15 116.59062Q69.15 115.05937 69.4625 114.1375Q69.775 113.2 70.38438 112.7Q71.00938 112.2 71.94688 112.2Q72.63438 112.2 73.15 112.48125Q73.68125 112.7625 74.025 113.29375Q74.36875 113.80937 74.55625 114.55937Q74.74375 115.30937 74.74375 116.59062Q74.74375 118.10625 74.43125 119.02812Q74.13438 119.95 73.50938 120.46562Q72.9 120.96562 71.94688 120.96562Q70.7125 120.96562 69.99375 120.075Q69.15 119.0125 69.15 116.59062ZM70.22813 116.59062Q70.22813 118.7 70.72813 119.40312Q71.22813 120.10625 71.94688 120.10625Q72.68125 120.10625 73.16563 119.40312Q73.66563 118.7 73.66563 116.59062Q73.66563 114.46562 73.16563 113.77812Q72.68125 113.075 71.93125 113.075Q71.2125 113.075 70.775 113.68437Q70.22813 114.46562 70.22813 116.59062Z" fill-rule="nonzero"/><path fill="#000000" d="M58.525 33.65L58.525 31.587502L54.80625 31.587502L54.80625 30.618752L58.728127 25.056252L59.5875 25.056252L59.5875 30.618752L60.74375 30.618752L60.74375 31.587502L59.5875 31.587502L59.5875 33.65L58.525 33.65ZM58.525 30.618752L58.525 26.759377L55.8375 30.618752L58.525 30.618752ZM62.15 29.415627Q62.15 27.884377 62.4625 26.962502Q62.775 26.025002 63.384377 25.525002Q64.00938 25.025002 64.94688 25.025002Q65.63438 25.025002 66.15 25.306252Q66.68125 25.587502 67.025 26.118752Q67.36875 26.634377 67.55625 27.384377Q67.74375 28.134377 67.74375 29.415627Q67.74375 30.931252 67.43125 31.853127Q67.13438 32.775 66.50938 33.290627Q65.9 33.790627 64.94688 33.790627Q63.7125 33.790627 62.99375 32.9Q62.15 31.837502 62.15 29.415627ZM63.228127 29.415627Q63.228127 31.525002 63.728127 32.228127Q64.22813 32.93125 64.94688 32.93125Q65.68125 32.93125 66.16563 32.228127Q66.66563 31.525002 66.66563 29.415627Q66.66563 27.290627 66.16563 26.603127Q65.68125 25.900002 64.93125 25.900002Q64.2125 25.900002 63.775 26.509377Q63.228127 27.290627 63.228127 29.415627ZM69.15 29.415627Q69.15 27.884377 69.4625 26.962502Q69.775 26.025002 70.38438 25.525002Q71.00938 25.025002 71.94688 25.025002Q72.63438 25.025002 73.15 25.306252Q73.68125 25.587502 74.025 26.118752Q74.36875 26.634377 74.55625 27.384377Q74.74375 28.134377 74.74375 29.415627Q74.74375 30.931252 74.43125 31.853127Q74.13438 32.775 73.50938 33.290627Q72.9 33.790627 71.94688 33.790627Q70.7125 33.790627 69.99375 32.9Q69.15 31.837502 69.15 29.415627ZM70.22813 29.415627Q70.22813 31.525002 70.72813 32.228127Q71.22813 32.93125 71.94688 32.93125Q72.68125 32.93125 73.16563 32.228127Q73.66563 31.525002 73.66563 29.415627Q73.66563 27.290627 73.16563 26.603127Q72.68125 25.900002 71.93125 25.900002Q71.2125 25.900002 70.775 26.509377Q70.22813 27.290627 70.22813 29.415627Z" fill-rule="nonzero"/><path fill="#000000" d="M73.69688 394.33438L73.69688 395.35L68.00938 395.35Q68.00938 394.975 68.13438 394.61563Q68.35313 394.0375 68.82188 393.475Q69.30625 392.9125 70.2125 392.17813Q71.61875 391.02188 72.10313 390.35Q72.60313 389.67813 72.60313 389.08438Q72.60313 388.45938 72.15 388.0375Q71.69688 387.6 70.97813 387.6Q70.2125 387.6 69.75938 388.05313Q69.30625 388.50626 69.29063 389.31876L68.2125 389.20938Q68.32188 387.99063 69.04063 387.36563Q69.775 386.725 71.00938 386.725Q72.24375 386.725 72.9625 387.4125Q73.68125 388.1 73.68125 389.11563Q73.68125 389.63126 73.4625 390.13126Q73.25938 390.61563 72.75938 391.17813Q72.275 391.725 71.15 392.67813Q70.19688 393.475 69.91563 393.77188Q69.65 394.05313 69.47813 394.33438L73.69688 394.33438ZM75.15 391.11563Q75.15 389.58438 75.4625 388.6625Q75.775 387.725 76.38438 387.225Q77.00938 386.725 77.94688 386.725Q78.63438 386.725 79.15 387.00626Q79.68125 387.2875 80.025 387.81876Q80.36875 388.33438 80.55625 389.08438Q80.74375 389.83438 80.74375 391.11563Q80.74375 392.63126 80.43125 393.55313Q80.13438 394.475 79.50938 394.99063Q78.9 395.49063 77.94688 395.49063Q76.7125 395.49063 75.99375 394.6Q75.15 393.5375 75.15 391.11563ZM76.22813 391.11563Q76.22813 393.225 76.72813 393.92813Q77.22813 394.63126 77.94688 394.63126Q78.68125 394.63126 79.16563 393.92813Q79.66563 393.225 79.66563 391.11563Q79.66563 388.99063 79.16563 388.30313Q78.68125 387.6 77.93125 387.6Q77.2125 387.6 76.775 388.20938Q76.22813 388.99063 76.22813 391.11563ZM86.11875 395.35L85.07188 395.35L85.07188 388.63126Q84.68125 388.99063 84.05625 389.36563Q83.44688 389.725 82.9625 389.89688L82.9625 388.88126Q83.8375 388.45938 84.49375 387.88126Q85.16563 387.2875 85.44688 386.725L86.11875 386.725L86.11875 395.35ZM89.2125 387.88126L89.2125 386.86563L94.775 386.86563L94.775 387.69376Q93.9625 388.56876 93.15 390.02188Q92.35313 391.45938 91.91563 392.99063Q91.5875 394.06876 91.50938 395.35L90.41563 395.35Q90.43125 394.33438 90.80625 392.89688Q91.19688 391.45938 91.9 390.13126Q92.61875 388.80313 93.43125 387.88126L89.2125 387.88126Z" fill-rule="nonzero"/><path fill="#000000" d="M292.4369 394.33438L292.4369 395.35L286.7494 395.35Q286.7494 394.975 286.8744 394.61563Q287.09314 394.0375 287.5619 393.475Q288.04626 392.9125 288.9525 392.17813Q290.35876 391.02188 290.84314 390.35Q291.34314 389.67813 291.34314 389.08438Q291.34314 388.45938 290.89 388.0375Q290.4369 387.6 289.71814 387.6Q288.9525 387.6 288.4994 388.05313Q288.04626 388.50626 288.03064 389.31876L286.9525 389.20938Q287.0619 387.99063 287.78064 387.36563Q288.515 386.725 289.7494 386.725Q290.98376 386.725 291.7025 387.4125Q292.42126 388.1 292.42126 389.11563Q292.42126 389.63126 292.2025 390.13126Q291.9994 390.61563 291.4994 391.17813Q291.015 391.725 289.89 392.67813Q288.9369 393.475 288.65564 393.77188Q288.39 394.05313 288.21814 394.33438L292.4369 394.33438ZM293.89 391.11563Q293.89 389.58438 294.2025 388.6625Q294.515 387.725 295.1244 387.225Q295.7494 386.725 296.6869 386.725Q297.3744 386.725 297.89 387.00626Q298.42126 387.2875 298.765 387.81876Q299.10876 388.33438 299.29626 389.08438Q299.48376 389.83438 299.48376 391.11563Q299.48376 392.63126 299.17126 393.55313Q298.8744 394.475 298.2494 394.99063Q297.64 395.49063 296.6869 395.49063Q295.4525 395.49063 294.73376 394.6Q293.89 393.5375 293.89 391.11563ZM294.96814 391.11563Q294.96814 393.225 295.46814 393.92813Q295.96814 394.63126 296.6869 394.63126Q297.42126 394.63126 297.90564 393.92813Q298.40564 393.225 298.40564 391.11563Q298.40564 388.99063 297.90564 388.30313Q297.42126 387.6 296.67126 387.6Q295.9525 387.6 295.515 388.20938Q294.96814 388.99063 294.96814 391.11563ZM304.85876 395.35L303.8119 395.35L303.8119 388.63126Q303.42126 388.99063 302.79626 389.36563Q302.1869 389.725 301.7025 389.89688L301.7025 388.88126Q302.5775 388.45938 303.23376 387.88126Q303.90564 387.2875 304.1869 386.725L304.85876 386.725L304.85876 395.35ZM309.515 390.69376Q308.85876 390.44376 308.53064 390.00626Q308.21814 389.55313 308.21814 388.94376Q308.21814 388.00626 308.89 387.36563Q309.5775 386.725 310.6869 386.725Q311.8119 386.725 312.4994 387.38126Q313.1869 388.0375 313.1869 388.975Q313.1869 389.56876 312.8744 390.00626Q312.5619 390.44376 311.92126 390.69376Q312.71814 390.94376 313.1244 391.52188Q313.53064 392.1 313.53064 392.89688Q313.53064 393.99063 312.7494 394.74063Q311.98376 395.49063 310.7025 395.49063Q309.4369 395.49063 308.65564 394.74063Q307.8744 393.99063 307.8744 392.86563Q307.8744 392.02188 308.29626 391.45938Q308.73376 390.89688 309.515 390.69376ZM309.29626 388.89688Q309.29626 389.50626 309.6869 389.89688Q310.09314 390.2875 310.71814 390.2875Q311.3275 390.2875 311.71814 389.9125Q312.10876 389.52188 312.10876 388.95938Q312.10876 388.38126 311.7025 387.99063Q311.29626 387.58438 310.7025 387.58438Q310.09314 387.58438 309.6869 387.975Q309.29626 388.36563 309.29626 388.89688ZM308.96814 392.86563Q308.96814 393.31876 309.17126 393.74063Q309.39 394.1625 309.8119 394.39688Q310.23376 394.63126 310.71814 394.63126Q311.46814 394.63126 311.9525 394.14688Q312.4525 393.6625 312.4525 392.9125Q312.4525 392.14688 311.9525 391.64688Q311.4525 391.14688 310.6869 391.14688Q309.9369 391.14688 309.4525 391.64688Q308.96814 392.13126 308.96814 392.86563Z" fill-rule="nonzero"/><path fill="#000000" d="M511.17688 394.33438L511.17688 395.35L505.48938 395.35Q505.48938 394.975 505.61438 394.61563Q505.83313 394.0375 506.30188 393.475Q506.78625 392.9125 507.6925 392.17813Q509.09875 391.02188 509.58313 390.35Q510.08313 389.67813 510.08313 389.08438Q510.08313 388.45938 509.63 388.0375Q509.17688 387.6 508.45813 387.6Q507.6925 387.6 507.23938 388.05313Q506.78625 388.50626 506.77063 389.31876L505.6925 389.20938Q505.80188 387.99063 506.52063 387.36563Q507.255 386.725 508.48938 386.725Q509.72375 386.725 510.4425 387.4125Q511.16125 388.1 511.16125 389.11563Q511.16125 389.63126 510.9425 390.13126Q510.73938 390.61563 510.23938 391.17813Q509.755 391.725 508.63 392.67813Q507.67688 393.475 507.39563 393.77188Q507.13 394.05313 506.95813 394.33438L511.17688 394.33438ZM512.63 391.11563Q512.63 389.58438 512.9425 388.6625Q513.255 387.725 513.8644 387.225Q514.4894 386.725 515.4269 386.725Q516.1144 386.725 516.63 387.00626Q517.16125 387.2875 517.505 387.81876Q517.84875 388.33438 518.03625 389.08438Q518.22375 389.83438 518.22375 391.11563Q518.22375 392.63126 517.91125 393.55313Q517.6144 394.475 516.9894 394.99063Q516.38 395.49063 515.4269 395.49063Q514.1925 395.49063 513.47375 394.6Q512.63 393.5375 512.63 391.11563ZM513.7081 391.11563Q513.7081 393.225 514.2081 393.92813Q514.7081 394.63126 515.4269 394.63126Q516.16125 394.63126 516.6456 393.92813Q517.1456 393.225 517.1456 391.11563Q517.1456 388.99063 516.6456 388.30313Q516.16125 387.6 515.41125 387.6Q514.6925 387.6 514.255 388.20938Q513.7081 388.99063 513.7081 391.11563ZM523.59875 395.35L522.5519 395.35L522.5519 388.63126Q522.16125 388.99063 521.53625 389.36563Q520.9269 389.725 520.4425 389.89688L520.4425 388.88126Q521.3175 388.45938 521.97375 387.88126Q522.6456 387.2875 522.9269 386.725L523.59875 386.725L523.59875 395.35ZM526.78625 393.36563L527.8019 393.27188Q527.9269 393.99063 528.28625 394.31876Q528.66125 394.63126 529.22375 394.63126Q529.7081 394.63126 530.0675 394.4125Q530.4425 394.17813 530.6769 393.81876Q530.91125 393.44376 531.0675 392.81876Q531.22375 392.17813 531.22375 391.52188Q531.22375 391.44376 531.22375 391.30313Q530.91125 391.80313 530.3644 392.13126Q529.8175 392.44376 529.1769 392.44376Q528.09875 392.44376 527.3644 391.67813Q526.63 390.89688 526.63 389.63126Q526.63 388.31876 527.3956 387.52188Q528.1769 386.725 529.3331 386.725Q530.16125 386.725 530.84875 387.17813Q531.5519 387.63126 531.91125 388.475Q532.2706 389.30313 532.2706 390.88126Q532.2706 392.52188 531.91125 393.50626Q531.5675 394.475 530.84875 394.99063Q530.1456 395.49063 529.2081 395.49063Q528.1925 395.49063 527.5519 394.94376Q526.91125 394.38126 526.78625 393.36563ZM531.09875 389.56876Q531.09875 388.6625 530.6144 388.13126Q530.1456 387.6 529.4581 387.6Q528.755 387.6 528.22375 388.17813Q527.7081 388.74063 527.7081 389.6625Q527.7081 390.475 528.2081 390.99063Q528.7081 391.50626 529.4269 391.50626Q530.16125 391.50626 530.63 390.99063Q531.09875 390.475 531.09875 389.56876Z" fill-rule="nonzero"/><path fill="#000000" d="M729.9169 394.33438L729.9169 395.35L724.2294 395.35Q724.2294 394.975 724.3544 394.61563Q724.5731 394.0375 725.0419 393.475Q725.52625 392.9125 726.4325 392.17813Q727.83875 391.02188 728.3231 390.35Q728.8231 389.67813 728.8231 389.08438Q728.8231 388.45938 728.37 388.0375Q727.9169 387.6 727.1981 387.6Q726.4325 387.6 725.9794 388.05313Q725.52625 388.50626 725.5106 389.31876L724.4325 389.20938Q724.5419 387.99063 725.2606 387.36563Q725.995 386.725 727.2294 386.725Q728.46375 386.725 729.1825 387.4125Q729.90125 388.1 729.90125 389.11563Q729.90125 389.63126 729.6825 390.13126Q729.4794 390.61563 728.9794 391.17813Q728.495 391.725 727.37 392.67813Q726.4169 393.475 726.1356 393.77188Q725.87 394.05313 725.6981 394.33438L729.9169 394.33438ZM731.37 391.11563Q731.37 389.58438 731.6825 388.6625Q731.995 387.725 732.6044 387.225Q733.2294 386.725 734.1669 386.725Q734.8544 386.725 735.37 387.00626Q735.90125 387.2875 736.245 387.81876Q736.58875 388.33438 736.77625 389.08438Q736.96375 389.83438 736.96375 391.11563Q736.96375 392.63126 736.65125 393.55313Q736.3544 394.475 735.7294 394.99063Q735.12 395.49063 734.1669 395.49063Q732.9325 395.49063 732.21375 394.6Q731.37 393.5375 731.37 391.11563ZM732.4481 391.11563Q732.4481 393.225 732.9481 393.92813Q733.4481 394.63126 734.1669 394.63126Q734.90125 394.63126 735.3856 393.92813Q735.8856 393.225 735.8856 391.11563Q735.8856 388.99063 735.3856 388.30313Q734.90125 387.6 734.15125 387.6Q733.4325 387.6 732.995 388.20938Q732.4481 388.99063 732.4481 391.11563ZM743.9169 394.33438L743.9169 395.35L738.2294 395.35Q738.2294 394.975 738.3544 394.61563Q738.5731 394.0375 739.0419 393.475Q739.52625 392.9125 740.4325 392.17813Q741.83875 391.02188 742.3231 390.35Q742.8231 389.67813 742.8231 389.08438Q742.8231 388.45938 742.37 388.0375Q741.9169 387.6 741.1981 387.6Q740.4325 387.6 739.9794 388.05313Q739.52625 388.50626 739.5106 389.31876L738.4325 389.20938Q738.5419 387.99063 739.2606 387.36563Q739.995 386.725 741.2294 386.725Q742.46375 386.725 743.1825 387.4125Q743.90125 388.1 743.90125 389.11563Q743.90125 389.63126 743.6825 390.13126Q743.4794 390.61563 742.9794 391.17813Q742.495 391.725 741.37 392.67813Q740.4169 393.475 740.1356 393.77188Q739.87 394.05313 739.6981 394.33438L743.9169 394.33438ZM745.37 391.11563Q745.37 389.58438 745.6825 388.6625Q745.995 387.725 746.6044 387.225Q747.2294 386.725 748.1669 386.725Q748.8544 386.725 749.37 387.00626Q749.90125 387.2875 750.245 387.81876Q750.58875 388.33438 750.77625 389.08438Q750.96375 389.83438 750.96375 391.11563Q750.96375 392.63126 750.65125 393.55313Q750.3544 394.475 749.7294 394.99063Q749.12 395.49063 748.1669 395.49063Q746.9325 395.49063 746.21375 394.6Q745.37 393.5375 745.37 391.11563ZM746.4481 391.11563Q746.4481 393.225 746.9481 393.92813Q747.4481 394.63126 748.1669 394.63126Q748.90125 394.63126 749.3856 393.92813Q749.8856 393.225 749.8856 391.11563Q749.8856 388.99063 749.3856 388.30313Q748.90125 387.6 748.15125 387.6Q747.4325 387.6 746.995 388.20938Q746.4481 388.99063 746.4481 391.11563Z" fill-rule="nonzero"/><path fill="#000000" d="M948.65686 394.33438L948.65686 395.35L942.96936 395.35Q942.96936 394.975 943.09436 394.61563Q943.3131 394.0375 943.78186 393.475Q944.26624 392.9125 945.1725 392.17813Q946.57874 391.02188 947.0631 390.35Q947.5631 389.67813 947.5631 389.08438Q947.5631 388.45938 947.11 388.0375Q946.65686 387.6 945.9381 387.6Q945.1725 387.6 944.71936 388.05313Q944.26624 388.50626 944.2506 389.31876L943.1725 389.20938Q943.28186 387.99063 944.0006 387.36563Q944.735 386.725 945.96936 386.725Q947.20374 386.725 947.9225 387.4125Q948.64124 388.1 948.64124 389.11563Q948.64124 389.63126 948.4225 390.13126Q948.21936 390.61563 947.71936 391.17813Q947.235 391.725 946.11 392.67813Q945.15686 393.475 944.8756 393.77188Q944.61 394.05313 944.4381 394.33438L948.65686 394.33438ZM950.11 391.11563Q950.11 389.58438 950.4225 388.6625Q950.735 387.725 951.34436 387.225Q951.96936 386.725 952.90686 386.725Q953.59436 386.725 954.11 387.00626Q954.64124 387.2875 954.985 387.81876Q955.32874 388.33438 955.51624 389.08438Q955.70374 389.83438 955.70374 391.11563Q955.70374 392.63126 955.39124 393.55313Q955.09436 394.475 954.46936 394.99063Q953.86 395.49063 952.90686 395.49063Q951.6725 395.49063 950.95374 394.6Q950.11 393.5375 950.11 391.11563ZM951.1881 391.11563Q951.1881 393.225 951.6881 393.92813Q952.1881 394.63126 952.90686 394.63126Q953.64124 394.63126 954.1256 393.92813Q954.6256 393.225 954.6256 391.11563Q954.6256 388.99063 954.1256 388.30313Q953.64124 387.6 952.89124 387.6Q952.1725 387.6 951.735 388.20938Q951.1881 388.99063 951.1881 391.11563ZM962.65686 394.33438L962.65686 395.35L956.96936 395.35Q956.96936 394.975 957.09436 394.61563Q957.3131 394.0375 957.78186 393.475Q958.26624 392.9125 959.1725 392.17813Q960.57874 391.02188 961.0631 390.35Q961.5631 389.67813 961.5631 389.08438Q961.5631 388.45938 961.11 388.0375Q960.65686 387.6 959.9381 387.6Q959.1725 387.6 958.71936 388.05313Q958.26624 388.50626 958.2506 389.31876L957.1725 389.20938Q957.28186 387.99063 958.0006 387.36563Q958.735 386.725 959.96936 386.725Q961.20374 386.725 961.9225 387.4125Q962.64124 388.1 962.64124 389.11563Q962.64124 389.63126 962.4225 390.13126Q962.21936 390.61563 961.71936 391.17813Q961.235 391.725 960.11 392.67813Q959.15686 393.475 958.8756 393.77188Q958.61 394.05313 958.4381 394.33438L962.65686 394.33438ZM968.07874 395.35L967.03186 395.35L967.03186 388.63126Q966.64124 388.99063 966.01624 389.36563Q965.40686 389.725 964.9225 389.89688L964.9225 388.88126Q965.7975 388.45938 966.45374 387.88126Q967.1256 387.2875 967.40686 386.725L968.07874 386.725L968.07874 395.35Z" fill-rule="nonzero"/><path fill="#000000" d="M1167.3969 394.33438L1167.3969 395.35L1161.7094 395.35Q1161.7094 394.975 1161.8344 394.61563Q1162.0531 394.0375 1162.5219 393.475Q1163.0062 392.9125 1163.9125 392.17813Q1165.3187 391.02188 1165.8031 390.35Q1166.3031 389.67813 1166.3031 389.08438Q1166.3031 388.45938 1165.85 388.0375Q1165.3969 387.6 1164.6781 387.6Q1163.9125 387.6 1163.4594 388.05313Q1163.0062 388.50626 1162.9906 389.31876L1161.9125 389.20938Q1162.0219 387.99063 1162.7406 387.36563Q1163.475 386.725 1164.7094 386.725Q1165.9437 386.725 1166.6625 387.4125Q1167.3812 388.1 1167.3812 389.11563Q1167.3812 389.63126 1167.1625 390.13126Q1166.9594 390.61563 1166.4594 391.17813Q1165.975 391.725 1164.85 392.67813Q1163.8969 393.475 1163.6156 393.77188Q1163.35 394.05313 1163.1781 394.33438L1167.3969 394.33438ZM1168.85 391.11563Q1168.85 389.58438 1169.1625 388.6625Q1169.475 387.725 1170.0844 387.225Q1170.7094 386.725 1171.6469 386.725Q1172.3344 386.725 1172.85 387.00626Q1173.3812 387.2875 1173.725 387.81876Q1174.0687 388.33438 1174.2562 389.08438Q1174.4437 389.83438 1174.4437 391.11563Q1174.4437 392.63126 1174.1312 393.55313Q1173.8344 394.475 1173.2094 394.99063Q1172.6 395.49063 1171.6469 395.49063Q1170.4125 395.49063 1169.6937 394.6Q1168.85 393.5375 1168.85 391.11563ZM1169.9281 391.11563Q1169.9281 393.225 1170.4281 393.92813Q1170.9281 394.63126 1171.6469 394.63126Q1172.3812 394.63126 1172.8656 393.92813Q1173.3656 393.225 1173.3656 391.11563Q1173.3656 388.99063 1172.8656 388.30313Q1172.3812 387.6 1171.6312 387.6Q1170.9125 387.6 1170.475 388.20938Q1169.9281 388.99063 1169.9281 391.11563ZM1181.3969 394.33438L1181.3969 395.35L1175.7094 395.35Q1175.7094 394.975 1175.8344 394.61563Q1176.0531 394.0375 1176.5219 393.475Q1177.0062 392.9125 1177.9125 392.17813Q1179.3187 391.02188 1179.8031 390.35Q1180.3031 389.67813 1180.3031 389.08438Q1180.3031 388.45938 1179.85 388.0375Q1179.3969 387.6 1178.6781 387.6Q1177.9125 387.6 1177.4594 388.05313Q1177.0062 388.50626 1176.9906 389.31876L1175.9125 389.20938Q1176.0219 387.99063 1176.7406 387.36563Q1177.475 386.725 1178.7094 386.725Q1179.9437 386.725 1180.6625 387.4125Q1181.3812 388.1 1181.3812 389.11563Q1181.3812 389.63126 1181.1625 390.13126Q1180.9594 390.61563 1180.4594 391.17813Q1179.975 391.725 1178.85 392.67813Q1177.8969 393.475 1177.6156 393.77188Q1177.35 394.05313 1177.1781 394.33438L1181.3969 394.33438ZM1188.3969 394.33438L1188.3969 395.35L1182.7094 395.35Q1182.7094 394.975 1182.8344 394.61563Q1183.0531 394.0375 1183.5219 393.475Q1184.0062 392.9125 1184.9125 392.17813Q1186.3187 391.02188 1186.8031 390.35Q1187.3031 389.67813 1187.3031 389.08438Q1187.3031 388.45938 1186.85 388.0375Q1186.3969 387.6 1185.6781 387.6Q1184.9125 387.6 1184.4594 388.05313Q1184.0062 388.50626 1183.9906 389.31876L1182.9125 389.20938Q1183.0219 387.99063 1183.7406 387.36563Q1184.475 386.725 1185.7094 386.725Q1186.9437 386.725 1187.6625 387.4125Q1188.3812 388.1 1188.3812 389.11563Q1188.3812 389.63126 1188.1625 390.13126Q1187.9594 390.61563 1187.4594 391.17813Q1186.975 391.725 1185.85 392.67813Q1184.8969 393.475 1184.6156 393.77188Q1184.35 394.05313 1184.1781 394.33438L1188.3969 394.33438Z" fill-rule="nonzero"/></svg>